<svg version="1.1" xmlns="http://www.w3.org/2000/svg" xmlns:xlink="http://www.w3.org/1999/xlink" width="208.36039" height="215.02016" viewBox="0,0,208.36039,215.02016"><g transform="translate(-71,-104.921)"><g data-paper-data="{&quot;isPaintingLayer&quot;:true}" fill-rule="nonzero" stroke-linejoin="miter" stroke-miterlimit="10" stroke-dasharray="" stroke-dashoffset="0" style="mix-blend-mode: normal"><path d="M240,141.86929c20.63357,0 37.36039,17.0717 37.36039,38.13071c0,21.05901 -16.72682,38.13071 -37.36039,38.13071c-20.63357,0 -37.36039,-17.0717 -37.36039,-38.13071c0,-21.05901 16.72682,-38.13071 37.36039,-38.13071z" data-paper-data="{&quot;index&quot;:null}" fill="#ffffff" stroke="#000000" stroke-width="4" stroke-linecap="butt"/><path d="M242.92912,314.92153l-7.35886,-37.36039l0.56607,-57.73878" data-paper-data="{&quot;index&quot;:null}" fill="none" stroke="#000000" stroke-width="4" stroke-linecap="round"/><path d="M235.0042,279.82541l-4.52853,35.09612" data-paper-data="{&quot;index&quot;:null}" fill="none" stroke="#000000" stroke-width="4" stroke-linecap="round"/><path d="M217.45613,283.22181l18.11413,-33.96399l13.5856,37.92646" data-paper-data="{&quot;index&quot;:null}" fill="none" stroke="#000000" stroke-width="4" stroke-linecap="round"/><path d="M214.11755,206.294c0,0 14.07905,-3.78096 20.56045,-3.90805c5.68278,-0.11143 16.24802,3.18632 16.24802,3.18632" data-paper-data="{&quot;index&quot;:null}" fill="none" stroke="#000000" stroke-width="4" stroke-linecap="round"/><path d="M218.06832,190.0135l0.41917,-13.78235" data-paper-data="{&quot;index&quot;:null}" fill="none" stroke="#000000" stroke-width="4" stroke-linecap="round"/><path d="M237.37712,192.64167l-0.00395,-16.02512" data-paper-data="{&quot;index&quot;:null}" fill="none" stroke="#000000" stroke-width="4" stroke-linecap="round"/><path d="M148.5,195.5c0,20.15839 -16.11775,36.5 -36,36.5c-19.88225,0 -36,-16.34161 -36,-36.5c0,-20.15839 16.11775,-36.5 36,-36.5c19.88225,0 36,16.34161 36,36.5z" fill="#ffffff" stroke="#000000" stroke-width="4" stroke-linecap="butt"/><path d="M73,179v-25l12,-15.5l7.58358,11.13874l7.83273,-12.49847l9.94918,12.27129l9.07697,-13.88944l11.63852,13.83521l7.41821,-18.85364l13.50082,23.49631v25z" fill="#ffffff" stroke="#000000" stroke-width="4" stroke-linecap="butt"/><path d="M140.5,216.11383c0,0 -11.9316,5.15358 -17.51468,4.9844c-5.41156,-0.16398 -15.48532,-5.9844 -15.48532,-5.9844" fill="none" stroke="#000000" stroke-width="4" stroke-linecap="round"/><path d="M122,209.61383v-14.5" fill="none" stroke="#000000" stroke-width="4" stroke-linecap="round"/><path d="M138,209.61384v-14.5" fill="none" stroke="#000000" stroke-width="4" stroke-linecap="round"/><path d="M112,234.44116l1.5,45l-3,37.5" fill="none" stroke="#000000" stroke-width="4" stroke-linecap="round"/><path d="M123,317.94116l-9,-39.5" fill="none" stroke="#000000" stroke-width="4" stroke-linecap="round"/><path d="M105.5,284.44116l7,-33l17.5,33.5" fill="none" stroke="#000000" stroke-width="4" stroke-linecap="round"/><text transform="translate(221.59364,126.671) scale(0.5,0.5)" font-size="40" xml:space="preserve" fill="#000000" fill-rule="nonzero" stroke="none" stroke-width="1" stroke-linecap="butt" stroke-linejoin="miter" stroke-miterlimit="10" stroke-dasharray="" stroke-dashoffset="0" font-family="Sans Serif" font-weight="normal" text-anchor="start" style="mix-blend-mode: normal"><tspan x="0" dy="0">Huh?</tspan></text></g></g></svg>