<svg version="1.1" xmlns="http://www.w3.org/2000/svg" xmlns:xlink="http://www.w3.org/1999/xlink" width="110" height="322.96354" viewBox="0,0,110,322.96354"><g transform="translate(-183.5,-127.03646)"><g data-paper-data="{&quot;isPaintingLayer&quot;:true}" fill-rule="nonzero" stroke="#000000" stroke-width="4" stroke-linejoin="miter" stroke-miterlimit="10" stroke-dasharray="" stroke-dashoffset="0" style="mix-blend-mode: normal"><path d="M291.5,180c0,28.14639 -23.05734,50.96354 -51.5,50.96354c-28.44266,0 -51.5,-22.81715 -51.5,-50.96354c0,-28.14639 23.05734,-50.96354 51.5,-50.96354c28.44266,0 51.5,22.81715 51.5,50.96354z" fill="#ffffff" stroke-linecap="butt"/><path d="M238.5,233l5,158" fill="none" stroke-linecap="round"/><path d="M218.83333,213.33333l42.66667,-1.33333" fill="none" stroke-linecap="round"/><path d="M227.83333,174.33333l1,21.33333" fill="none" stroke-linecap="round"/><path d="M252.5,175l-0.33333,21.33333" fill="none" stroke-linecap="round"/><path d="M232.16667,168.33333l-16,10" fill="none" stroke-linecap="round"/><path d="M251.5,168l9,11.33333" fill="none" stroke-linecap="round"/><path d="M240.5,297l-55,151" fill="none" stroke-linecap="round"/><path d="M241.5,303l22,145" fill="none" stroke-linecap="round"/></g></g></svg>