<svg version="1.1" xmlns="http://www.w3.org/2000/svg" xmlns:xlink="http://www.w3.org/1999/xlink" width="144.34184" height="121.74183" viewBox="0,0,144.34184,121.74183"><g transform="translate(-344.07644,-265.51438)"><g data-paper-data="{&quot;isPaintingLayer&quot;:true}" fill-rule="nonzero" stroke="#000000" stroke-width="4" stroke-linejoin="miter" stroke-miterlimit="10" stroke-dasharray="" stroke-dashoffset="0" style="mix-blend-mode: normal"><path d="M484.54634,297.43572c6.06593,22.69267 -3.096,47.02908 -20.46375,54.35687c-17.36775,7.3278 -36.36451,-5.1279 -42.43045,-27.82057c-6.06593,-22.69267 3.096,-47.02908 20.46375,-54.35687c17.36775,-7.3278 36.36451,5.1279 42.43045,27.82057z" data-paper-data="{&quot;index&quot;:null}" fill="#ffffff" stroke-linecap="butt"/><path d="M365.87023,385.25621c0,0 -8.41858,-10.23263 -7.56372,-16.19933c0.86286,-6.0226 12.71717,-19.77014 12.71717,-19.77014l49.7649,-22.98474" data-paper-data="{&quot;index&quot;:null}" fill="none" stroke-linecap="round"/><path d="M372.30836,349.05375l-26.23192,8.41717" data-paper-data="{&quot;index&quot;:null}" fill="none" stroke-linecap="round"/><path d="M400.51437,337.81573c0,0 -2.21753,16.5925 -5.54986,22.52138c-3.33994,5.94245 -14.46697,13.09274 -14.46697,13.09274" data-paper-data="{&quot;index&quot;:null}" fill="none" stroke-linecap="round"/><path d="M366.49333,323.01329c0,0 12.30676,-2.73689 17.82464,-0.53173c5.50528,2.20014 15.24488,13.74768 15.24488,13.74768" data-paper-data="{&quot;index&quot;:null}" fill="none" stroke-linecap="round"/><path d="M427.33277,284.75361l13.83437,43.86172" data-paper-data="{&quot;index&quot;:null}" fill="none" stroke-linecap="round"/><path d="M436.98586,289.29522l12.95323,-6.79052" data-paper-data="{&quot;index&quot;:null}" fill="none" stroke-linecap="round"/></g></g></svg>