<svg version="1.1" xmlns="http://www.w3.org/2000/svg" xmlns:xlink="http://www.w3.org/1999/xlink" width="73.66667" height="96.31711" viewBox="0,0,73.66667,96.31711"><g transform="translate(-202.06153,-150.33594)"><g data-paper-data="{&quot;isPaintingLayer&quot;:true}" fill-rule="nonzero" stroke-linejoin="miter" stroke-miterlimit="10" stroke-dasharray="" stroke-dashoffset="0" style="mix-blend-mode: normal"><path d="M204.06153,220.66927v-68.33333h69.66667v68.33333z" fill="#ffffff" stroke="#000000" stroke-width="4" stroke-linecap="butt"/><text transform="translate(220.63435,240.40306) scale(0.5,0.5)" font-size="40" xml:space="preserve" fill="#000000" fill-rule="nonzero" stroke="none" stroke-width="1" stroke-linecap="butt" stroke-linejoin="miter" stroke-miterlimit="10" stroke-dasharray="" stroke-dashoffset="0" font-family="Sans Serif" font-weight="normal" text-anchor="start" style="mix-blend-mode: normal"><tspan x="0" dy="0">Lag</tspan></text><path d="M268.44709,178.00073c2.58492,9.67021 -1.31932,20.04088 -8.72038,23.16353c-7.40106,3.12266 -15.4963,-2.18519 -18.08122,-11.8554c-2.58492,-9.67021 1.31932,-20.04087 8.72038,-23.16352c7.40106,-3.12266 15.4963,2.18519 18.08123,11.8554z" data-paper-data="{&quot;index&quot;:null}" fill="#ffffff" stroke="#000000" stroke-width="4" stroke-linecap="butt"/><path d="M217.87469,215.42438c0,0 -3.58748,-4.36052 -3.22319,-6.90315c0.36769,-2.56646 5.41927,-8.4248 5.41927,-8.4248l21.20672,-9.79467" data-paper-data="{&quot;index&quot;:null}" fill="none" stroke="#000000" stroke-width="4" stroke-linecap="round"/><path d="M220.61822,199.99713l-11.17841,3.58688" data-paper-data="{&quot;index&quot;:null}" fill="none" stroke="#000000" stroke-width="4" stroke-linecap="round"/><path d="M232.63787,195.20819c0,0 -0.94497,7.0707 -2.365,9.59722c-1.42327,2.53231 -6.16492,5.57932 -6.16492,5.57932" data-paper-data="{&quot;index&quot;:null}" fill="none" stroke="#000000" stroke-width="4" stroke-linecap="round"/><path d="M218.14022,188.90031c0,0 5.24437,-1.16629 7.59575,-0.22659c2.34601,0.93757 6.49642,5.85841 6.49642,5.85841" data-paper-data="{&quot;index&quot;:null}" fill="none" stroke="#000000" stroke-width="4" stroke-linecap="round"/><path d="M244.06621,172.5964l5.89535,18.69115" data-paper-data="{&quot;index&quot;:null}" fill="none" stroke="#000000" stroke-width="4" stroke-linecap="round"/><path d="M248.17976,174.53176l5.51986,-2.8937" data-paper-data="{&quot;index&quot;:null}" fill="none" stroke="#000000" stroke-width="4" stroke-linecap="round"/></g></g></svg>