<svg version="1.1" xmlns="http://www.w3.org/2000/svg" xmlns:xlink="http://www.w3.org/1999/xlink" width="73" height="150.47833" viewBox="0,0,73,150.47833"><g transform="translate(-203.5,-144.82692)"><g data-paper-data="{&quot;isPaintingLayer&quot;:true}" fill-rule="nonzero" stroke="#000000" stroke-width="4" stroke-linejoin="miter" stroke-miterlimit="10" stroke-dasharray="" stroke-dashoffset="0" style="mix-blend-mode: normal"><path d="M274.5,180c0,18.32098 -15.44618,33.17308 -34.5,33.17308c-19.05382,0 -34.5,-14.85209 -34.5,-33.17308c0,-18.32098 15.44618,-33.17308 34.5,-33.17308c19.05382,0 34.5,14.85209 34.5,33.17308z" fill="#ffffff" stroke-linecap="butt"/><path d="M238.51684,214.58212l-1.5,53c0,0 -6.59925,14.72116 -10.86888,17.06527c-4.23,2.32235 -14.63112,-3.06527 -14.63112,-3.06527" fill="none" stroke-linecap="round"/><path d="M236.78365,266.30525l2,27" fill="none" stroke-linecap="round"/><path d="M236.28365,236.71906c0,0 -11.81384,6.3067 -15.22659,10.96803c-3.42056,4.67198 -5.27341,17.03197 -5.27341,17.03197" fill="none" stroke-linecap="round"/><path d="M237.78366,237.21906c0,0 11.81384,6.3067 15.2266,10.96803c3.42056,4.67199 5.2734,17.03197 5.2734,17.03197" data-paper-data="{&quot;index&quot;:null}" fill="none" stroke-linecap="round"/><path d="M230.28365,195.85005l37.5,2" fill="none" stroke-linecap="round"/><path d="M262.28365,175.85005l-1,14" fill="none" stroke-linecap="round"/></g></g></svg>