<svg version="1.1" xmlns="http://www.w3.org/2000/svg" xmlns:xlink="http://www.w3.org/1999/xlink" width="359.26448" height="416.4461" viewBox="0,0,359.26448,416.4461"><g transform="translate(-46.09832,-33.5539)"><g data-paper-data="{&quot;isPaintingLayer&quot;:true}" fill-rule="nonzero" stroke-linejoin="miter" stroke-miterlimit="10" stroke-dasharray="" stroke-dashoffset="0" style="mix-blend-mode: normal"><path d="M309.5,180.00001c0,37.74406 -31.11621,68.34167 -69.5,68.34167c-38.38379,0 -69.5,-30.59761 -69.5,-68.34167c0,-37.74406 31.11621,-68.34167 69.5,-68.34167c38.38379,0 69.5,30.59761 69.5,68.34167z" fill="#ffffff" stroke="#000000" stroke-width="4" stroke-linecap="butt"/><path d="M240.5,250.00001l10,198" fill="none" stroke="#000000" stroke-width="4" stroke-linecap="round"/><path d="M179.40384,380.52956l63.2411,-107.66667c0,0 27.32665,15.61685 38.94091,16.0414c10.02353,0.36641 26.67798,-13.64272 26.67798,-13.64272" fill="none" stroke="#000000" stroke-width="4" stroke-linecap="round"/><path d="M304.4512,249.22354c1.17196,-6.14434 0.49049,-12.40935 1.4082,-18.62661c0.30033,-2.03465 -0.16723,-4.40556 1.01963,-6.08524c3.54215,-5.01296 9.97222,-2.20759 14.79784,-1.50521c10.62466,1.54645 21.09086,4.41212 31.75336,5.59282c1.12694,0.6827 2.48174,1.08491 3.38081,2.04811c3.20508,3.43367 4.10512,10.01249 3.55004,14.50728c-0.16586,1.34305 -0.09995,2.84397 -0.85124,3.96952c-3.1836,4.76955 -10.52537,3.37371 -15.12368,2.54655l-2.60731,-0.47363c0,0 -0.91116,-0.16552 -1.52362,-0.84963c0.41474,2.22028 0.1939,4.68867 0.20207,6.60889c0.4429,5.70652 1.67249,11.21853 2.32056,16.85206c0.16857,1.46531 1.09866,3.28975 0.1537,4.42227c-2.08071,2.49372 -6.70791,2.53672 -9.62212,2.36778c-8.14328,-0.47206 -16.21174,-1.53967 -24.38193,-1.64503c-0.40438,0.3222 -0.9791,0.53437 -1.7941,0.45279c-0.42392,-0.04243 -0.76836,-0.14987 -1.04811,-0.29893l-0.58766,0.06216c0,0 -2.48762,0.24854 -2.73615,-2.23908c-0.24854,-2.48762 2.23908,-2.73615 2.23908,-2.73615l0.10268,-0.00977c0.50995,-7.42426 0.08519,-14.86927 0.68681,-22.23829c-1.71173,-0.73565 -1.33884,-2.72267 -1.33884,-2.72267z" fill="#000000" stroke="none" stroke-width="0.5" stroke-linecap="butt"/><text transform="translate(312.45673,244.04312) scale(0.40172,0.40172)" font-size="40" xml:space="preserve" fill="#ffffff" fill-rule="nonzero" stroke="none" stroke-width="1" stroke-linecap="butt" stroke-linejoin="miter" stroke-miterlimit="10" stroke-dasharray="" stroke-dashoffset="0" font-family="Sans Serif" font-weight="normal" text-anchor="start" style="mix-blend-mode: normal"><tspan x="0" dy="0">nefrz</tspan></text><path d="M276.5,168.15312l-2,38" fill="none" stroke="#000000" stroke-width="4" stroke-linecap="round"/><path d="M242.5,172.15312l-3,23" fill="none" stroke="#000000" stroke-width="4" stroke-linecap="round"/><path d="M280.5,225.15312c0,0 -15.31795,13.47681 -22.85899,12.67457c-8.08738,-0.86036 -24.14101,-17.67457 -24.14101,-17.67457" fill="none" stroke="#000000" stroke-width="4" stroke-linecap="round"/><path d="M245.26777,216.92088c-1.76777,1.76777 -3.53553,0 -3.53553,0l-1.54656,-1.64114c-1.17872,-0.35935 -5.25604,-1.56294 -6,-2c-0.81291,-0.47757 -1.19155,-1.51493 -2,-2c-0.90388,-0.54233 -2.10333,-0.44583 -3,-1c-5.29591,-3.27303 -8.10796,-9.14424 -8.18567,-15.12663c0,0 0,-2.5 2.5,-2.5c2.5,0 2.5,2.5 2.5,2.5c-0.07453,4.17556 2.01448,8.6766 5.81433,10.87337c0.91257,0.52757 2.09612,0.45767 3,1c0.80845,0.48507 1.19707,1.50584 2,2c1.7954,1.10498 4.01225,1.29765 6,2l2.45344,2.35886c0,0 1.76777,1.76777 0,3.53553z" fill="#000000" stroke="none" stroke-width="0.5" stroke-linecap="butt"/><path d="M175,144.991v-43.03797l20.65823,-26.68354l13.05528,19.17555l13.48419,-21.51635l17.1277,21.12526l15.62618,-23.91093l20.03593,23.81758l12.77059,-32.4569l23.24192,40.44934v43.03797z" fill="#ffffff" stroke="#000000" stroke-width="4" stroke-linecap="butt"/><text transform="translate(46.5,68.5) scale(0.80336,0.80336)" font-size="40" xml:space="preserve" fill="#000000" fill-rule="nonzero" stroke="none" stroke-width="1" stroke-linecap="butt" stroke-linejoin="miter" stroke-miterlimit="10" stroke-dasharray="" stroke-dashoffset="0" font-family="Sans Serif" font-weight="normal" text-anchor="start" style="mix-blend-mode: normal"><tspan x="0" dy="0">YOU DON'T GET WHAT?</tspan></text></g></g></svg>