<svg version="1.1" xmlns="http://www.w3.org/2000/svg" xmlns:xlink="http://www.w3.org/1999/xlink" width="88.77104" height="121.5" viewBox="0,0,88.77104,121.5"><g transform="translate(-210.91681,-124.56336)"><g data-paper-data="{&quot;isPaintingLayer&quot;:true}" fill-rule="nonzero" stroke="#000000" stroke-width="4" stroke-linejoin="miter" stroke-miterlimit="10" stroke-dasharray="" stroke-dashoffset="0" style="mix-blend-mode: normal"><path d="M267.07369,206.42939l15.98019,-24.79685l13.86942,8.93807l-15.98019,24.79685z" fill="#ffffff" stroke-linecap="butt"/><path d="M263.91681,151.06336c0,13.53098 -11.41674,24.5 -25.5,24.5c-14.08326,0 -25.5,-10.96902 -25.5,-24.5c0,-13.53098 11.41674,-24.5 25.5,-24.5c14.08326,0 25.5,10.96902 25.5,24.5z" fill="#ffffff" stroke-linecap="butt"/><path d="M239.41681,175.56336l-0.5,42.5l-4.5,25" fill="none" stroke-linecap="round"/><path d="M238.91681,218.06336l5,26" fill="none" stroke-linecap="round"/><path d="M220.41681,227.56336l16.5,-34c0,0 13.1191,17.25248 19.08976,20.32561c5.27672,2.71596 14.91024,-2.82561 14.91024,-2.82561" fill="none" stroke-linecap="round"/><path d="M254.66681,165.11336c0,0 -6.8126,-2.01135 -10.20895,-2.29146c-3.02792,-0.24973 -9.19105,0.69146 -9.19105,0.69146" fill="none" stroke-linecap="round"/><path d="M251.19582,158.78994l4,-10.2" fill="none" stroke-linecap="round"/></g></g></svg>