<svg version="1.1" xmlns="http://www.w3.org/2000/svg" xmlns:xlink="http://www.w3.org/1999/xlink" width="114.70313" height="140.21374" viewBox="0,0,114.70313,140.21374"><g transform="translate(-184.41615,-106.43932)"><g data-paper-data="{&quot;isPaintingLayer&quot;:true}" fill-rule="nonzero" stroke-linejoin="miter" stroke-miterlimit="10" stroke-dasharray="" stroke-dashoffset="0" style="mix-blend-mode: normal"><path d="M189.97283,215.93932v-107.5h99.5v107.5z" fill="#ffffff" stroke="#000000" stroke-width="4" stroke-linecap="butt"/><text transform="translate(184.66615,240.40306) scale(0.5,0.5)" font-size="40" xml:space="preserve" fill="#000000" fill-rule="nonzero" stroke="none" stroke-width="1" stroke-linecap="butt" stroke-linejoin="miter" stroke-miterlimit="10" stroke-dasharray="" stroke-dashoffset="0" font-family="Sans Serif" font-weight="normal" text-anchor="start" style="mix-blend-mode: normal"><tspan x="0" dy="0">Guess What</tspan></text><path d="M256.18482,150.51932c0,8.97759 -7.40113,16.25536 -16.53088,16.25536c-9.12975,0 -16.53088,-7.27777 -16.53088,-16.25536c0,-8.97759 7.40113,-16.25536 16.53088,-16.25536c9.12975,0 16.53088,7.27777 16.53088,16.25536z" fill="#ffffff" stroke="#000000" stroke-width="4" stroke-linecap="butt"/><path d="M239.77287,167.16912l2.37854,47.09516" fill="none" stroke="#000000" stroke-width="4" stroke-linecap="round"/><path d="M225.24088,198.21614l15.04217,-25.60898c0,0 6.49976,3.71454 9.26226,3.81552c2.38414,0.08715 6.34547,-3.24498 6.34547,-3.24498" fill="none" stroke="#000000" stroke-width="4" stroke-linecap="round"/><path d="M254.98394,166.98443c0.27876,-1.46146 0.11667,-2.95162 0.33495,-4.43042c0.07143,-0.48395 -0.03978,-1.04788 0.24252,-1.4474c0.84252,-1.19235 2.37194,-0.52508 3.51973,-0.35802c2.52712,0.36783 5.01655,1.04944 7.55267,1.33028c0.26805,0.16238 0.59029,0.25805 0.80414,0.48715c0.76234,0.81671 0.97642,2.38151 0.84439,3.45062c-0.03945,0.31945 -0.02377,0.67645 -0.20247,0.94417c-0.75723,1.13446 -2.5035,0.80245 -3.59723,0.60571l-0.62016,-0.11265c0,0 -0.21672,-0.03937 -0.3624,-0.20209c0.09865,0.5281 0.04612,1.11522 0.04806,1.57195c0.10535,1.35732 0.39781,2.66838 0.55196,4.00834c0.0401,0.34853 0.26132,0.78248 0.03656,1.05186c-0.49491,0.59314 -1.59551,0.60337 -2.28866,0.56319c-1.93691,-0.11228 -3.85603,-0.36622 -5.79935,-0.39128c-0.09618,0.07664 -0.23288,0.1271 -0.42673,0.1077c-0.10083,-0.01009 -0.18276,-0.03565 -0.2493,-0.0711l-0.13978,0.01479c0,0 -0.59169,0.05912 -0.65081,-0.53257c-0.05912,-0.59169 0.53257,-0.65081 0.53257,-0.65081l0.02442,-0.00232c0.12129,-1.76589 0.02026,-3.53672 0.16336,-5.28947c-0.40714,-0.17498 -0.31845,-0.6476 -0.31845,-0.6476z" fill="#000000" stroke="none" stroke-width="0.5" stroke-linecap="butt"/><text transform="translate(256.88809,165.75225) scale(0.09555,0.09555)" font-size="40" xml:space="preserve" fill="#ffffff" fill-rule="nonzero" stroke="none" stroke-width="1" stroke-linecap="butt" stroke-linejoin="miter" stroke-miterlimit="10" stroke-dasharray="" stroke-dashoffset="0" font-family="Sans Serif" font-weight="normal" text-anchor="start" style="mix-blend-mode: normal"><tspan x="0" dy="0">nefrz</tspan></text><path d="M247.85991,156.73995l0.47571,-9.03846" fill="none" stroke="#000000" stroke-width="4" stroke-linecap="round"/><path d="M240.24858,148.6529l-0.71356,5.47065" fill="none" stroke="#000000" stroke-width="4" stroke-linecap="round"/><path d="M249.28704,161.25918c0,0 -3.64344,3.20552 -5.43711,3.0147c-1.92362,-0.20464 -5.74204,-4.20397 -5.74204,-4.20397" fill="none" stroke="#000000" stroke-width="4" stroke-linecap="round"/><path d="M240.9069,159.3011c-0.42047,0.42047 -0.84094,0 -0.84094,0l-0.36786,-0.39035c-0.28036,-0.08547 -1.25017,-0.37175 -1.42713,-0.47571c-0.19335,-0.11359 -0.28342,-0.36033 -0.47571,-0.47571c-0.21499,-0.129 -0.50029,-0.10604 -0.71356,-0.23785c-1.25966,-0.7785 -1.92851,-2.175 -1.947,-3.59793c0,0 0,-0.59464 0.59464,-0.59464c0.59464,0 0.59464,0.59464 0.59464,0.59464c-0.01773,0.99318 0.47915,2.06377 1.38296,2.58628c0.21706,0.12548 0.49857,0.10886 0.71356,0.23785c0.19229,0.11538 0.28473,0.35817 0.47571,0.47571c0.42704,0.26282 0.95433,0.30865 1.42713,0.47571l0.58356,0.56107c0,0 0.42047,0.42047 0,0.84094z" fill="#000000" stroke="none" stroke-width="0.5" stroke-linecap="butt"/><path d="M224.19341,142.19227v-10.23677l4.91365,-6.3468l3.10525,4.56099l3.20727,-5.11776l4.0739,5.02473l3.71675,-5.68732l4.76563,5.66511l3.03754,-7.72001l5.52819,9.62105v10.23677z" fill="#ffffff" stroke="#000000" stroke-width="4" stroke-linecap="butt"/><text transform="translate(193.62913,119.49856) scale(0.19108,0.19108)" font-size="40" xml:space="preserve" fill="#000000" fill-rule="nonzero" stroke="none" stroke-width="1" stroke-linecap="butt" stroke-linejoin="miter" stroke-miterlimit="10" stroke-dasharray="" stroke-dashoffset="0" font-family="Sans Serif" font-weight="normal" text-anchor="start" style="mix-blend-mode: normal"><tspan x="0" dy="0">YOU DON'T GET WHAT?</tspan></text></g></g></svg>