<svg version="1.1" xmlns="http://www.w3.org/2000/svg" xmlns:xlink="http://www.w3.org/1999/xlink" width="188.76155" height="377.48108" viewBox="0,0,188.76155,377.48108"><g transform="translate(-116.98845,-72.51893)"><g data-paper-data="{&quot;isPaintingLayer&quot;:true}" fill-rule="nonzero" stroke-linejoin="miter" stroke-miterlimit="10" stroke-dasharray="" stroke-dashoffset="0" style="mix-blend-mode: normal"><path d="M210.65554,111.65834c38.38379,0 69.5,30.59761 69.5,68.34167c0,37.74406 -31.11621,68.34167 -69.5,68.34167c-38.38379,0 -69.5,-30.59761 -69.5,-68.34167c0,-37.74406 31.11621,-68.34167 69.5,-68.34167z" data-paper-data="{&quot;index&quot;:null}" fill="#ffffff" stroke="#000000" stroke-width="4" stroke-linecap="butt"/><path d="M210.15554,250.00001l-10,198" data-paper-data="{&quot;index&quot;:null}" fill="none" stroke="#000000" stroke-width="4" stroke-linecap="round"/><path d="M303.75,250.33338l-96.5,62.5l-76,-65" fill="none" stroke="#000000" stroke-width="4" stroke-linecap="round"/><path d="M161.73845,165.41894v33" fill="none" stroke="#000000" stroke-width="4" stroke-linecap="round"/><path d="M175.73845,166.91894l-1,31.5" fill="none" stroke="#000000" stroke-width="4" stroke-linecap="round"/><path d="M196.50622,198.15117c1.76777,1.76777 0,3.53553 0,3.53553l-1.16731,1.15279c-5.53391,4.60966 -10.97165,7.98056 -18.24691,9.05432c0,0 -2.47487,0.35355 -2.82843,-2.12132c-0.35355,-2.47487 2.12132,-2.82843 2.12132,-2.82843c6.33812,-0.86998 10.95902,-3.94888 15.75309,-7.94568l0.83269,-0.84721c0,0 1.76777,-1.76777 3.53553,0z" fill="#000000" stroke="none" stroke-width="0.5" stroke-linecap="butt"/><path d="M175.73845,226.26832c0,0 14.35226,-4.32484 21.57243,-4.73979c7.27935,-0.41835 21.92757,2.23979 21.92757,2.23979" fill="none" stroke="#000000" stroke-width="4" stroke-linecap="round"/><text transform="translate(117.23845,94.26893) scale(0.5,0.5)" font-size="40" xml:space="preserve" fill="#000000" fill-rule="nonzero" stroke="none" stroke-width="1" stroke-linecap="butt" stroke-linejoin="miter" stroke-miterlimit="10" stroke-dasharray="" stroke-dashoffset="0" font-family="Sans Serif" font-weight="normal" text-anchor="start" style="mix-blend-mode: normal"><tspan x="0" dy="0">OKAY OKAY I GET IT</tspan></text></g></g></svg>