<svg version="1.1" xmlns="http://www.w3.org/2000/svg" xmlns:xlink="http://www.w3.org/1999/xlink" width="130.46258" height="118.92077" viewBox="0,0,130.46258,118.92077"><g transform="translate(-255.40155,-65.2756)"><g data-paper-data="{&quot;isPaintingLayer&quot;:true}" fill-rule="nonzero" stroke="#000000" stroke-width="4" stroke-linejoin="miter" stroke-miterlimit="10" stroke-dasharray="" stroke-dashoffset="0" style="mix-blend-mode: normal"><path d="M310.4722,72.87931c15.12583,10.33767 18.67219,31.47041 7.92101,47.20128c-10.75118,15.73087 -31.72865,20.10292 -46.85449,9.76524c-15.12583,-10.33767 -18.67219,-31.47041 -7.92101,-47.20128c10.75118,-15.73087 31.72865,-20.10292 46.85449,-9.76524z" fill="#ffffff" stroke-linecap="butt"/><path d="M318.71964,122.10015l42.91051,31.14383c0,0 8.43017,13.75482 7.95631,18.6025c-0.46946,4.80269 -10.78635,10.34989 -10.78635,10.34989" fill="none" stroke-linecap="round"/><path d="M360.44438,152.71602l23.41975,13.58364" fill="none" stroke-linecap="round"/><path d="M347.2855,169.15864c0,0 -9.15895,-8.50388 -11.08608,-13.96408c-1.92275,-5.44774 -0.46357,-18.75985 -0.46357,-18.75985" fill="none" stroke-linecap="round"/><path d="M336.99503,135.47843c0,0 11.87282,-6.19495 17.64688,-6.38236c5.78727,-0.18783 17.03716,5.25662 17.03716,5.25662" data-paper-data="{&quot;index&quot;:null}" fill="none" stroke-linecap="round"/><path d="M298.6088,118.32785l22.8107,-29.83156" fill="none" stroke-linecap="round"/><path d="M311.14705,89.34868l-10.99417,-8.72515" fill="none" stroke-linecap="round"/></g></g></svg>