<svg version="1.1" xmlns="http://www.w3.org/2000/svg" xmlns:xlink="http://www.w3.org/1999/xlink" width="156.80469" height="156.61864" viewBox="0,0,156.80469,156.61864"><g transform="translate(-209.92226,-89.44472)"><g data-paper-data="{&quot;isPaintingLayer&quot;:true}" fill-rule="nonzero" stroke-linejoin="miter" stroke-miterlimit="10" stroke-dasharray="" stroke-dashoffset="0" style="mix-blend-mode: normal"><path d="M269.57369,197.42939l15.98019,-24.79685l13.86942,8.93807l-15.98019,24.79685z" fill="#ffffff" stroke="#000000" stroke-width="4" stroke-linecap="butt"/><path d="M263.91681,151.06336c0,13.53098 -11.41674,24.5 -25.5,24.5c-14.08326,0 -25.5,-10.96902 -25.5,-24.5c0,-13.53098 11.41674,-24.5 25.5,-24.5c14.08326,0 25.5,10.96902 25.5,24.5z" fill="#ffffff" stroke="#000000" stroke-width="4" stroke-linecap="butt"/><path d="M239.41681,175.56336l-0.5,42.5l-4.5,25" fill="none" stroke="#000000" stroke-width="4" stroke-linecap="round"/><path d="M243.91681,244.06336l-5,-26" fill="none" stroke="#000000" stroke-width="4" stroke-linecap="round"/><path d="M222.91681,218.56336l16.5,-34c0,0 13.1191,17.25248 19.08976,20.32561c5.27672,2.71596 14.91024,-2.82561 14.91024,-2.82561" fill="none" stroke="#000000" stroke-width="4" stroke-linecap="round"/><path d="M235.26681,163.51336c0,0 6.16313,-0.94119 9.19105,-0.69146c3.39635,0.28011 10.20895,2.29146 10.20895,2.29146" fill="none" stroke="#000000" stroke-width="4" stroke-linecap="round"/><path d="M245.1928,157.16807l0.00605,-10.95628" fill="none" stroke="#000000" stroke-width="4" stroke-linecap="round"/><text transform="translate(210.17226,111.19472) scale(0.5,0.5)" font-size="40" xml:space="preserve" fill="#000000" fill-rule="nonzero" stroke="none" stroke-width="1" stroke-linecap="butt" stroke-linejoin="miter" stroke-miterlimit="10" stroke-dasharray="" stroke-dashoffset="0" font-family="Sans Serif" font-weight="normal" text-anchor="start" style="mix-blend-mode: normal"><tspan x="0" dy="0">Guess I'll buy it..</tspan></text><path d="M252.3928,157.96807l0.00605,-10.95627" fill="none" stroke="#000000" stroke-width="4" stroke-linecap="round"/></g></g></svg>