<svg version="1.1" xmlns="http://www.w3.org/2000/svg" xmlns:xlink="http://www.w3.org/1999/xlink" width="131" height="159" viewBox="0,0,131,159"><g transform="translate(-174.5,-100.5)"><g data-paper-data="{&quot;isPaintingLayer&quot;:true}" fill-rule="nonzero" stroke-linecap="butt" stroke-linejoin="miter" stroke-miterlimit="10" stroke-dasharray="" stroke-dashoffset="0" style="mix-blend-mode: normal"><path d="M176.5,257.5v-155h127v155z" fill="#ffffff" stroke="#000000" stroke-width="4"/><path d="M247.87188,200.74818c1.76697,-1.76856 3.53553,-0.00159 3.53553,-0.00159l1.02368,1.09142c0.73729,1.10497 1.41562,2.23453 2.17537,3.29856c1.19654,-2.06294 3.32929,-0.91556 3.32929,-0.91556c4.23627,2.28549 7.49606,4.76309 11.31219,7.64272c0.78372,0.59139 1.89933,0.84217 2.42553,1.67107c0.96627,1.52213 2.79708,3.53906 1.85957,5.07907c-1.02032,1.67604 -3.77968,1.32442 -5.74169,1.29794c-2.79174,-0.03768 -5.75935,-1.17054 -8.54565,-2.59729c0.00112,0.00466 0.00223,0.00931 0.00336,0.01397c-0.50224,3.37854 -2.17863,6.10751 -4.56224,8.24981c0.1251,0.00462 0.25037,0.00954 0.37582,0.01477c1.70765,0.07109 8.80581,0.4735 10.37175,1.38011c4.10401,2.37604 4.39685,5.97843 4.09418,10.24764c-0.77214,10.89092 -9.62404,17.88924 -19.04142,21.74006c-5.57923,0.03125 -9.75668,-1.08355 -14.58477,-4.03298c-4.16615,-2.54505 -8.87318,-4.75637 -12.94135,-7.38374c-3.55905,-2.29856 -8.03247,-10.3223 -4.9261,-14.42224c1.49473,-1.97282 3.60755,-3.03197 5.93641,-3.63805c-1.69333,-1.0697 -2.86013,-2.57876 -3.20457,-4.70838c-2.99974,0.89402 -6.08322,2.00554 -8.36349,3.49139c-1.49353,0.9732 -2.82142,2.1927 -4.02714,3.52906c-0.48019,0.72419 -0.94404,1.45677 -1.38957,2.19812c-2.17366,3.61691 -3.08203,8.43256 -5.55348,11.81876c-0.00211,0.00289 -0.00422,0.00578 -0.00633,0.00867l0.002,0.00091l-1.75427,3.85592c-0.38202,0.89163 -1.26757,1.51627 -2.29902,1.51627c-1.38071,0 -2.5,-1.11929 -2.5,-2.5c0,-0.13492 0.01069,-0.26734 0.03126,-0.39646l0.26181,-1.83101c-0.40301,-0.44386 -0.6486,-1.03325 -0.6486,-1.68c0,-0.4324 0.10978,-0.83917 0.30298,-1.19394l1.45696,-2.81028c3.0736,-7.04094 7.9409,-13.62456 13.27599,-19.39672c1.07289,-1.44349 2.16982,-2.86644 3.30694,-4.21845c-0.17639,0.09837 -0.35415,0.19405 -0.53336,0.28686l-3.94199,3.03824c-0.42517,0.33444 -0.96148,0.53394 -1.54439,0.53394c-1.38071,0 -2.5,-1.11929 -2.5,-2.5c0,-0.64175 0.24181,-1.22702 0.63928,-1.66968l1.77405,-1.99402c0.40207,-0.67139 0.80014,-1.34518 1.2068,-2.0138c0.80376,-1.32154 1.55882,-2.67472 2.42474,-3.95639c0.08514,-0.12601 0.1683,-0.2551 0.25119,-0.38519c-0.49689,0.18257 -1.0191,0.32058 -1.51007,0.50725c-2.90872,1.10593 -9.73089,4.2384 -12.67349,1.17192c-1.28713,-1.34131 3.16294,-8.49522 3.80701,-9.67191c0.43053,-0.78656 0.82239,-1.59494 1.24036,-2.38837c-0.70174,0.40836 -1.43911,0.76924 -2.12857,1.19335c-1.51553,0.93226 -2.84132,2.3035 -4.55461,2.78368c-0.10871,0.03047 -0.21781,0.05858 -0.32727,0.08451l0.00911,0.03147l-3.81203,1.10349c-0.23697,0.07451 -0.48916,0.11468 -0.75072,0.11468c-1.38071,0 -2.5,-1.11929 -2.5,-2.5c0,-0.44497 0.11625,-0.8628 0.32004,-1.22475l2.34424,-4.36301l0.03429,0.01842l0.04815,-0.16046c2.46287,-3.42391 4.54192,-7.47845 7.26944,-10.79227c-0.36584,0.10566 -0.73467,0.20289 -1.1059,0.29261l0.14351,0.4309l-4.21116,1.40248c-0.26403,0.09484 -0.54863,0.14652 -0.84531,0.14652c-1.38071,0 -2.5,-1.11929 -2.5,-2.5c0,-0.50956 0.15245,-0.98351 0.41422,-1.37873l1.70885,-2.67024l0.01823,0.01166l0.02028,-0.07002c2.71924,-3.76876 5.22856,-8.00394 8.35399,-11.51562l-1.23789,0.28541c-0.19672,0.04975 -0.40273,0.07619 -0.61492,0.07619c-1.38071,0 -2.5,-1.11929 -2.5,-2.5c0,-0.78789 0.36447,-1.49065 0.93401,-1.94888l2.59107,-2.11807l0.10856,0.1328l0.25501,-0.38007c6.07898,-2.15236 11.94784,-4.35151 18.2234,-5.18183c0.26262,-0.376 0.52428,-0.74437 0.78351,-1.10453c2.22862,-3.09641 2.9339,-4.27805 6.56423,-6.54319c1.54162,-0.96189 3.31358,-1.49248 4.97036,-2.23872c5.31672,-1.80359 9.56803,-3.12656 15.20344,-3.23886l2.85236,0.50573c0,0 2.45975,0.44683 2.01292,2.90657c-0.44683,2.45975 -2.90657,2.01292 -2.90657,2.01292l-2.36229,-0.44154c-3.11764,0.04901 -5.77016,0.62337 -8.49191,1.4411c4.78869,0.1247 9.99948,0.65103 13.92918,2.87624c8.65825,4.90278 12.0753,15.74189 11.7217,25.01358c-0.14119,3.70217 -0.18746,7.64008 -1.93321,10.99822c-1.65934,3.19193 -2.37526,3.47257 -5.01369,6.12542c-2.33626,2.05533 -4.84055,3.80962 -7.65749,4.92801c-0.12981,0.20966 -0.28311,0.38704 -0.43172,0.5314l0.69691,0.46431c0.08411,0.06034 0.1674,0.1207 0.24989,0.18109c0.11728,-0.19839 0.27244,-0.39939 0.47328,-0.60041zM253.13854,213.76623l-0.12279,-0.18237l-0.04313,0.04934l-2.83365,-2.47721c-0.3698,-0.31987 -0.64483,-0.74636 -0.77729,-1.23169c-1.57552,-1.69245 -2.97012,-3.1644 -5.05147,-4.64061l-2.09991,-1.39829c0,0 -0.16069,-0.10703 -0.36301,-0.30625c-2.12369,1.51282 -3.75402,3.1767 -5.87988,5.69419c1.61794,0.27254 1.91718,2.06631 1.91718,2.06631l-0.01946,1.1723c0.50109,0.7747 1.02297,1.5551 1.58131,2.29924c1.94284,-1.41078 4.1289,-2.15727 7.07309,-1.16932c2.01868,0.67738 7.26126,4.8117 4.99213,8.12625c-0.2143,0.31303 -0.4335,0.59961 -0.65711,0.86107c1.8289,-1.30149 3.12472,-2.97317 3.39902,-5.08833c-0.2517,-1.17051 -0.17621,-2.46351 -0.7551,-3.51152c-0.01228,-0.02223 -0.02485,-0.04422 -0.03771,-0.06599c-0.1084,-0.0664 -0.21582,-0.13213 -0.32222,-0.19712zM228.77114,219.16852c1.10795,2.24108 -1.13313,3.34903 -1.13313,3.34903l-1.91426,0.89257c-0.0844,0.02251 -0.16944,0.04515 -0.25506,0.06793c-0.02806,0.39635 0.01038,0.76167 0.13254,1.08168c1.03573,2.71324 8.26036,2.04704 10.06162,2.06625c2.67048,0.02848 6.83798,-0.44774 10.55619,-1.72076c-2.33821,-0.03544 -4.7699,-1.44972 -6.91453,-3.27629c-0.61036,0.41356 -1.8884,0.98242 -3.1656,-0.29595c-1.29729,-1.29847 -0.6888,-2.59607 -0.27365,-3.19415c-0.89403,-1.05801 -1.64083,-2.06951 -2.18192,-2.88599l-0.68276,-2.88815c-1.11769,1.07843 -2.24342,2.14964 -3.24643,3.33201c-0.40424,0.47652 -1.11574,1.36677 -1.84472,2.43026c0.3182,0.21628 0.61749,0.54756 0.86171,1.04156zM222.98221,215.63263l-0.00891,-0.00892c-0.01449,0.02 -0.02904,0.03997 -0.04364,0.0599c-0.2266,0.30943 -3.56665,3.15737 -5.37235,4.75101c-0.14889,0.15922 -0.29744,0.31884 -0.44565,0.47885c1.38252,-0.53047 2.79897,-1.00837 4.24076,-1.44983c0.73472,-2.07975 2.01982,-3.95725 3.51622,-5.71577zM234.02508,234.17722c-0.25873,0.03912 -0.53703,0.07814 -0.82657,0.12165c-1.43502,0.66867 -2.85405,1.43854 -4.26224,2.31909c0.67024,1.12833 3.81318,3.10286 3.9462,3.17245c1.69867,0.88867 3.48798,1.58127 5.32989,2.11003c-1.0992,-0.98494 -1.6429,-2.50073 -2.49466,-3.72212l-1.51661,-3.38712c0,0 -0.10974,-0.24669 -0.17602,-0.61398zM256.63401,240.75014c0.01172,0.04962 0.02224,0.09969 0.03148,0.15023c0.32645,1.78463 -0.28842,3.61699 -0.43263,5.42549c-8.39665,3.14056 -17.81462,2.10232 -25.78032,-2.16561c-2.85167,-1.52789 -7.72974,-5.33172 -6.44766,-9.35597c0.00504,-0.02841 0.01063,-0.05651 0.01674,-0.0843c-0.68976,0.26486 -1.31102,0.62634 -1.79599,1.12921c-0.36333,0.37674 -0.07788,1.05876 0.03518,1.5698c0.43951,1.98663 1.7128,4.92904 3.5718,6.03201c4.19384,2.48827 8.52387,4.6321 12.69099,7.21906c3.55374,2.20618 6.83299,3.35072 10.98119,3.38827c5.59083,-2.40539 12.31643,-6.73888 13.86155,-12.85641c0.53318,-2.11099 3.13702,-8.36327 -0.36525,-9.86079c-2.49828,-1.06822 -5.4018,-0.63823 -8.11653,-0.75124c-1.09065,-0.0454 -2.16477,-0.06724 -3.22373,-0.06301c0.77855,0.19486 1.47356,0.41088 1.90898,0.64073c1.94946,1.0291 6.1409,3.98776 4.89267,7.13352c-0.37876,0.95454 -1.03653,1.75473 -1.82848,2.44901zM239.14315,233.60523l0.95408,2.16068c0.5106,0.82421 0.77261,1.8696 1.53181,2.47264c0.88711,0.70464 2.1061,0.83562 3.15915,1.25343c1.69626,-0.03951 3.52707,-0.14103 5.23041,-0.59773c-0.91723,-1.52042 -1.98087,-3.03146 -3.12192,-4.23049c-0.10889,-0.0196 -0.19811,-0.03584 -0.26312,-0.04821c-2.6742,-0.50878 -5.04139,-0.97583 -7.49042,-1.01032zM243.13688,218.37563c0.95132,0.57336 2.00823,0.96185 3.20224,1.08115c-0.48543,-0.3327 -0.84161,-0.88891 -1.39974,-1.07116c-0.66331,-0.2166 -1.25849,-0.19063 -1.80251,-0.00998zM232.06245,206.14801c1.73637,-2.05849 3.26844,-3.67211 4.9338,-5.08654c-3.04995,-0.63218 -6.0069,-1.94863 -8.71868,-3.25289c-1.12222,-0.53974 -2.2736,-1.14546 -3.42696,-1.81416c0.74957,1.44528 1.52455,2.87528 2.28553,4.31266l0.47295,-0.27002c0.3739,-0.22275 0.81085,-0.35071 1.27768,-0.35071c1.23475,0 2.26042,0.89514 2.46349,2.07189c0.54502,0.21602 1.07521,0.67661 1.35344,1.60487c0.40097,1.33776 -0.16936,2.1522 -0.75093,2.61054c0.03603,0.06323 0.06876,0.12582 0.09837,0.18774c0.00377,-0.00446 0.00754,-0.00893 0.0113,-0.01339zM251.63109,175.07385c-2.48972,0.22653 -2.71625,-2.26319 -2.71625,-2.26319l-0.24473,-2.71815c-0.00095,-3.6379 -0.31575,-7.26179 -0.47427,-10.8983c0,0 -0.02206,-0.50684 0.18202,-1.07382c-0.32974,-0.22401 -0.67086,-0.43567 -1.02363,-0.63407c-4.48369,-2.52172 -11.19958,-2.29612 -16.09716,-2.29488c0,0 -2.46267,0 -2.49958,-2.44421c-0.54002,0.22965 -1.06821,0.48189 -1.56824,0.78795c-2.02484,1.23936 -2.8628,2.07828 -3.78672,3.31657c0.65572,0.29545 1.34742,0.91876 1.34742,2.23376c0,2.5 -2.5,2.5 -2.5,2.5c-0.74564,-0.00178 -1.48317,0.02321 -2.21375,0.07198c-2.66224,4.00703 -5.35424,8.93353 -5.40179,13.71341c0.97535,0.0679 1.79657,0.69527 2.14491,1.56336l1.93913,4.53161c0.08748,0.19672 0.17458,0.39356 0.26132,0.59051c0.0156,0.02162 0.0311,0.0433 0.04649,0.06505c0.11063,-0.31545 0.27606,-0.60328 0.50948,-0.84998c1.15694,-1.22274 2.94201,-1.55167 4.71208,-1.74776c0.01541,-0.13981 0.04168,-0.28667 0.0802,-0.44088c0.53821,-2.15473 2.51248,-1.91713 2.94655,-1.83723c2.30346,-2.50308 6.75629,-2.73874 9.65255,-2.53548c4.18375,0.29362 9.75879,1.84534 13.27393,5.01646l1.95459,-0.71012c0.28149,-0.1098 0.58777,-0.17005 0.90813,-0.17005c1.38071,0 2.5,1.11929 2.5,2.5c0,1.05163 -0.64932,1.9516 -1.56892,2.32086l-0.87119,0.37304c0.60886,1.72703 0.85516,3.35133 0.72895,4.81461c0.38556,-0.49085 0.75784,-1.08532 1.25328,-2.01867c1.39276,-2.62385 1.27246,-5.99546 1.38519,-8.89448c0.17714,-4.5552 -0.68454,-9.81062 -3.03487,-14.086c0.11296,2.00207 0.20927,4.00396 0.20874,6.01l0.22931,2.49185c0,0 0.22653,2.48972 -2.26319,2.71625zM245.10335,190.85181c1.36037,-0.1046 2.72176,-0.33462 3.33709,-0.84192c1.03399,-0.85246 0.75073,-2.48341 0.10984,-3.86938c-1.35223,0.73646 -3.00089,1.35433 -4.75355,1.83082c0.33173,0.40717 0.63844,0.81597 0.9173,1.22332zM237.24669,196.15491c-0.07311,-0.00615 -0.14532,-0.01236 -0.21663,-0.01863c1.58892,0.31352 3.15633,0.41583 4.64815,0.24669c0.25247,-0.02862 0.50201,-0.06442 0.7487,-0.10705c-1.72777,0.08239 -3.46725,0.02304 -5.18021,-0.12101zM225.88453,184.32315c-0.78473,-0.05506 -1.5679,-0.07437 -2.34253,-0.06003c-0.17637,0.00327 0.38449,-0.01517 0.52011,0.09762c0.70416,0.5856 1.21718,1.38277 1.93852,1.94707c1.00597,0.78696 2.14336,1.38965 3.21504,2.08447c3.6504,1.74749 4.28335,2.47473 8.37732,2.77462c0.78014,0.05715 1.56116,-0.00822 2.34242,-0.08443c-0.58045,-0.76821 -1.22732,-1.46418 -1.92849,-2.09152c-1.56959,0.13002 -3.05629,0.12706 -4.32205,-0.02521c-3.22603,-0.38808 -6.49556,-2.10225 -7.80035,-4.6426zM206.66692,166.78915l1.24853,4.74017c0.1143,-0.016 0.23107,-0.02428 0.34978,-0.02428c0.66744,0 1.2738,0.26156 1.72215,0.68776c0.60059,-3.29004 1.96911,-6.53007 3.6208,-9.53318c-2.73788,0.64445 -5.42181,1.51532 -8.1205,2.43247c-0.0078,0.0341 -0.0163,0.06793 -0.02548,0.10148l-0.00035,0.00138c0.5966,0.3364 1.0412,0.91071 1.20506,1.59419zM218.94121,202.16744c-0.40169,1.13816 -1.1881,1.9328 -2.58542,1.99362c-0.05648,0.00246 -0.1127,0.00357 -0.16867,0.00338c0.4292,1.18723 0.38084,2.48916 0.04185,3.82163c1.381,-1.14422 2.75382,-2.27635 4.17635,-3.3579c-0.51579,-0.79933 -0.99311,-1.62447 -1.46411,-2.46073zM198.15059,178.85123l1.81735,-1.15547c-0.07928,-0.3472 -0.1581,-0.69194 -0.2366,-1.03393c-0.4733,0.65562 -1.02689,1.42235 -1.58075,2.18941zM199.89979,189.81799c-1.04737,1.64469 -2.12842,3.26833 -3.23666,4.87315c1.3899,-0.88713 2.84477,-1.60888 4.0778,-2.07894c0.84873,-0.32355 1.8469,-0.87645 2.78387,-1.11903c-0.50509,-1.57911 -0.96394,-3.18059 -1.3894,-4.7808c-0.64654,1.07933 -1.55761,2.04095 -2.23561,3.10562zM204.68168,202.85409c-0.51276,1.00067 -0.93687,2.07291 -1.5195,3.0323c1.80892,-0.78313 3.93349,-1.44629 4.15923,-1.53325c0.57949,-0.22324 1.13195,-0.54589 1.69894,-0.81102c-0.90301,-1.34499 -1.71549,-2.78699 -2.45245,-4.29839c-0.60403,1.35318 -1.37388,2.61051 -1.88623,3.61037z" fill="#0040ff" stroke="none" stroke-width="0.5"/><path d="M238.60498,171.29506c-2.5,0 -2.5,-2.5 -2.5,-2.5l0.06413,0.08898c-0.39402,-1.7255 -0.88125,-3.43918 -1.54424,-5.08024c0,0 -0.92919,-2.32091 1.39171,-3.2501c2.32091,-0.92919 3.2501,1.39171 3.2501,1.39171c0.74796,1.88291 1.31386,3.84034 1.77416,5.81338l0.06413,1.03626c0,0 0,2.5 -2.5,2.5z" fill="#0040ff" stroke="none" stroke-width="0.5"/><text transform="translate(181.75,121.77769) scale(0.41171,0.40791)" font-size="40" xml:space="preserve" fill="#000000" fill-rule="nonzero" stroke="none" stroke-width="1" stroke-linecap="butt" stroke-linejoin="miter" stroke-miterlimit="10" stroke-dasharray="" stroke-dashoffset="0" font-family="Sans Serif" font-weight="normal" text-anchor="start" style="mix-blend-mode: normal"><tspan x="0" dy="0">SawnIC</tspan><tspan x="0" dy="46.15px">the pighedge</tspan></text></g></g></svg>