<svg version="1.1" xmlns="http://www.w3.org/2000/svg" xmlns:xlink="http://www.w3.org/1999/xlink" width="85.10156" height="121.70585" viewBox="0,0,85.10156,121.70585"><g transform="translate(-197.91615,-124.94721)"><g data-paper-data="{&quot;isPaintingLayer&quot;:true}" fill-rule="nonzero" stroke-linecap="butt" stroke-linejoin="miter" stroke-miterlimit="10" stroke-dasharray="" stroke-dashoffset="0" style="mix-blend-mode: normal"><text transform="translate(198.16615,240.40306) scale(0.5,0.5)" font-size="40" xml:space="preserve" fill="#000000" fill-rule="nonzero" stroke="none" stroke-width="1" stroke-linecap="butt" stroke-linejoin="miter" stroke-miterlimit="10" stroke-dasharray="" stroke-dashoffset="0" font-family="Sans Serif" font-weight="normal" text-anchor="start" style="mix-blend-mode: normal"><tspan x="0" dy="0">Bootlegs</tspan></text><path d="M201.96584,213.57042v-86.62322h70.97515v86.62322z" fill="#ffffff" stroke="#000000" stroke-width="4"/><path d="M241.85269,181.85413c0.98749,-0.98838 1.97586,-0.00089 1.97586,-0.00089l0.57209,0.60995c0.41204,0.61752 0.79113,1.24879 1.21573,1.84343c0.6687,-1.15289 1.86061,-0.51167 1.86061,-0.51167c2.36748,1.27727 4.18924,2.6619 6.32192,4.27121c0.43799,0.3305 1.06146,0.47065 1.35553,0.93389c0.54001,0.85066 1.56317,1.97784 1.03924,2.83849c-0.57022,0.93667 -2.11231,0.74016 -3.2088,0.72537c-1.56019,-0.02106 -3.21867,-0.65417 -4.77582,-1.45152c0.00063,0.0026 0.00125,0.0052 0.00188,0.00781c-0.28068,1.88813 -1.21755,3.41324 -2.54965,4.61048c0.06991,0.00258 0.13992,0.00533 0.21003,0.00825c0.95434,0.03973 4.92121,0.26462 5.79635,0.77129c2.29356,1.32787 2.45722,3.3411 2.28807,5.72699c-0.43152,6.08649 -5.37849,9.99757 -10.64148,12.14964c-3.11801,0.01746 -5.45261,-0.60555 -8.15084,-2.25387c-2.32829,-1.42233 -4.95886,-2.65814 -7.2324,-4.12647c-1.98901,-1.28457 -4.48902,-5.76871 -2.753,-8.06001c0.83534,-1.10253 2.01611,-1.69445 3.31762,-2.03316c-0.94633,-0.59781 -1.59841,-1.44116 -1.7909,-2.63132c-1.67643,0.49963 -3.39967,1.12081 -4.67402,1.9512c-0.83467,0.54388 -1.57678,1.22541 -2.25061,1.97225c-0.26836,0.40472 -0.52759,0.81413 -0.77657,1.22844c-1.21477,2.02134 -1.72242,4.71262 -3.10361,6.60503c-0.00118,0.00162 -0.00236,0.00323 -0.00354,0.00485l0.00112,0.00051l-0.98039,2.15492c-0.2135,0.4983 -0.70839,0.84738 -1.28483,0.84738c-0.77162,0 -1.39715,-0.62553 -1.39715,-1.39715c0,-0.0754 0.00597,-0.14941 0.01747,-0.22157l0.14631,-1.02328c-0.22523,-0.24806 -0.36248,-0.57744 -0.36248,-0.93888c0,-0.24165 0.06135,-0.46898 0.16932,-0.66724l0.81424,-1.57055c1.71771,-3.9349 4.43785,-7.61421 7.41941,-10.84004c0.59959,-0.80671 1.21262,-1.60194 1.84811,-2.35752c-0.09858,0.05498 -0.19792,0.10845 -0.29807,0.16031l-2.20302,1.69795c-0.23761,0.1869 -0.53733,0.2984 -0.8631,0.2984c-0.77162,0 -1.39715,-0.62553 -1.39715,-1.39715c0,-0.35865 0.13514,-0.68573 0.35727,-0.93312l0.99144,-1.11438c0.2247,-0.37521 0.44717,-0.75177 0.67443,-1.12543c0.44919,-0.73856 0.87116,-1.49479 1.35509,-2.21107c0.04758,-0.07042 0.09406,-0.14257 0.14038,-0.21527c-0.27769,0.10203 -0.56953,0.17916 -0.84392,0.28348c-1.62557,0.61806 -5.4382,2.36867 -7.0827,0.65494c-0.71932,-0.7496 1.76764,-4.74763 2.12758,-5.40524c0.24061,-0.43958 0.4596,-0.89135 0.69319,-1.33476c-0.39217,0.22822 -0.80426,0.4299 -1.18957,0.66691c-0.84697,0.521 -1.5879,1.28733 -2.54539,1.55569c-0.06075,0.01703 -0.12173,0.03274 -0.1829,0.04723l0.00509,0.01759l-2.13039,0.6167c-0.13243,0.04164 -0.27337,0.06409 -0.41955,0.06409c-0.77162,0 -1.39715,-0.62553 -1.39715,-1.39715c0,-0.24868 0.06497,-0.48218 0.17886,-0.68446l1.3101,-2.43831l0.01916,0.01029l0.02691,-0.08967c1.3764,-1.91348 2.53829,-4.1794 4.0626,-6.03136c-0.20445,0.05905 -0.41058,0.11339 -0.61804,0.16353l0.0802,0.24081l-2.35345,0.78379c-0.14756,0.053 -0.30661,0.08188 -0.47241,0.08188c-0.77162,0 -1.39715,-0.62553 -1.39715,-1.39715c0,-0.28477 0.0852,-0.54964 0.23149,-0.77052l0.95501,-1.49229l0.01019,0.00652l0.01133,-0.03913c1.51967,-2.10621 2.92203,-4.47308 4.66871,-6.43561l-0.69181,0.1595c-0.10994,0.0278 -0.22507,0.04258 -0.34365,0.04258c-0.77162,0 -1.39715,-0.62553 -1.39715,-1.39715c0,-0.44032 0.20369,-0.83306 0.52198,-1.08915l1.44804,-1.1837l0.06067,0.07422l0.14251,-0.21241c3.3973,-1.20287 6.67716,-2.43188 10.18432,-2.89591c0.14677,-0.21013 0.293,-0.416 0.43787,-0.61728c1.24549,-1.73046 1.63964,-2.39083 3.66848,-3.65672c0.86155,-0.53756 1.85183,-0.83409 2.77773,-1.25113c2.9713,-1.00795 5.34718,-1.74731 8.49659,-1.81007l1.59407,0.28263c0,0 1.37465,0.24972 1.12494,1.62436c-0.24972,1.37465 -1.62436,1.12494 -1.62436,1.12494l-1.32019,-0.24676c-1.74232,0.02739 -3.22471,0.34838 -4.74578,0.80537c2.6762,0.06969 5.5883,0.36383 7.78445,1.60741c4.83874,2.73996 6.7484,8.7975 6.55078,13.97908c-0.07891,2.06899 -0.10476,4.26973 -1.08039,6.14646c-0.92734,1.78384 -1.32744,1.94068 -2.80195,3.42325c-1.30564,1.14864 -2.70519,2.12904 -4.27946,2.75406c-0.07255,0.11717 -0.15822,0.2163 -0.24127,0.29698l0.38947,0.25948c0.04701,0.03372 0.09355,0.06745 0.13965,0.1012c0.06554,-0.11087 0.15226,-0.2232 0.2645,-0.33554zM244.79601,189.12939l-0.06862,-0.10192l-0.0241,0.02757l-1.58361,-1.38441c-0.20667,-0.17876 -0.36037,-0.41711 -0.4344,-0.68834c-0.88049,-0.94584 -1.65988,-1.76845 -2.82306,-2.59345l-1.17355,-0.78145c0,0 -0.0898,-0.05981 -0.20287,-0.17115c-1.18684,0.84545 -2.09797,1.77533 -3.28603,3.18225c0.9042,0.15231 1.07143,1.15478 1.07143,1.15478l-0.01088,0.65515c0.28004,0.43295 0.5717,0.86908 0.88373,1.28495c1.08577,-0.78843 2.30747,-1.20561 3.95286,-0.65349c1.12816,0.37856 4.05802,2.68906 2.7899,4.54143c-0.11976,0.17494 -0.24227,0.3351 -0.36723,0.48122c1.0221,-0.72735 1.74628,-1.66158 1.89957,-2.84366c-0.14066,-0.65415 -0.09848,-1.37676 -0.42199,-1.96245c-0.00686,-0.01242 -0.01389,-0.02471 -0.02107,-0.03688c-0.06058,-0.03711 -0.12061,-0.07384 -0.18008,-0.11016zM231.17806,192.14851c0.61919,1.25245 -0.63326,1.87164 -0.63326,1.87164l-1.0698,0.49882c-0.04717,0.01258 -0.09469,0.02523 -0.14254,0.03796c-0.01568,0.2215 0.0058,0.42567 0.07407,0.60451c0.57883,1.51632 4.61638,1.14401 5.62303,1.15474c1.49242,0.01592 3.82147,-0.25022 5.89943,-0.96166c-1.30673,-0.01981 -2.6657,-0.81019 -3.86425,-1.83099c-0.34111,0.23112 -1.05535,0.54903 -1.76913,-0.16539c-0.725,-0.72566 -0.38494,-1.45084 -0.15293,-1.78508c-0.49964,-0.59128 -0.91699,-1.15657 -1.21939,-1.61286l-0.38157,-1.61407c-0.62463,0.60269 -1.25376,1.20135 -1.8143,1.86213c-0.22591,0.26631 -0.62354,0.76383 -1.03094,1.35817c0.17783,0.12087 0.34509,0.30601 0.48157,0.58209zM227.94286,190.17245l-0.00498,-0.00499c-0.0081,0.01118 -0.01623,0.02234 -0.02439,0.03348c-0.12664,0.17293 -1.99326,1.76453 -3.00239,2.65515c-0.08321,0.08898 -0.16623,0.17819 -0.24906,0.26761c0.77263,-0.29646 1.56423,-0.56354 2.36999,-0.81025c0.41061,-1.16229 1.1288,-2.21155 1.96507,-3.19431zM234.11428,200.53627c-0.14459,0.02186 -0.30012,0.04367 -0.46194,0.06799c-0.80197,0.37369 -1.59501,0.80394 -2.38199,1.29605c0.37457,0.63058 2.13103,1.73406 2.20537,1.77295c0.94932,0.49664 1.94929,0.88371 2.97866,1.17921c-0.6143,-0.55044 -0.91815,-1.39756 -1.39416,-2.08014l-0.84757,-1.89292c0,0 -0.06133,-0.13787 -0.09837,-0.34313zM246.74949,204.20961c0.00655,0.02773 0.01243,0.05571 0.01759,0.08396c0.18244,0.99736 -0.16119,2.02139 -0.24178,3.03209c-4.69255,1.75513 -9.95587,1.1749 -14.40758,-1.21027c-1.59368,-0.85388 -4.31984,-2.97968 -3.60334,-5.22867c0.00282,-0.01588 0.00594,-0.03158 0.00936,-0.04711c-0.38548,0.14802 -0.73268,0.35004 -1.00371,0.63107c-0.20305,0.21054 -0.04352,0.5917 0.01966,0.8773c0.24562,1.11025 0.95721,2.75464 1.99613,3.37105c2.34377,1.39059 4.76365,2.58869 7.09248,4.03444c1.98604,1.23294 3.81868,1.87258 6.13694,1.89357c3.12449,-1.34427 6.88315,-3.76609 7.74666,-7.18493c0.29797,-1.17975 1.75315,-4.67389 -0.20412,-5.5108c-1.39619,-0.59698 -3.01885,-0.35668 -4.536,-0.41984c-0.60952,-0.02537 -1.2098,-0.03758 -1.80161,-0.03521c0.4351,0.1089 0.82351,0.22962 1.06685,0.35808c1.08947,0.57512 3.4319,2.2286 2.73431,3.98664c-0.21167,0.53345 -0.57927,0.98065 -1.02186,1.36865zM236.97456,200.2166l0.5332,1.20752c0.28535,0.46062 0.43178,1.04484 0.85607,1.38186c0.49577,0.39379 1.17701,0.46699 1.76552,0.70049c0.94797,-0.02208 1.97114,-0.07882 2.92306,-0.33405c-0.5126,-0.8497 -1.10703,-1.69416 -1.74471,-2.36425c-0.06085,-0.01095 -0.11072,-0.02003 -0.14705,-0.02694c-1.4945,-0.28434 -2.81743,-0.54535 -4.18609,-0.56463zM239.20649,191.7054c0.53165,0.32043 1.12232,0.53754 1.7896,0.60421c-0.27129,-0.18593 -0.47034,-0.49678 -0.78226,-0.59863c-0.3707,-0.12105 -0.70332,-0.10654 -1.00735,-0.00558zM233.01744,184.87188c0.97039,-1.15041 1.8266,-2.05219 2.7573,-2.84266c-1.70449,-0.3533 -3.35701,-1.08901 -4.87252,-1.81791c-0.62716,-0.30164 -1.27062,-0.64015 -1.91519,-1.01386c0.4189,0.80771 0.85201,1.60688 1.27729,2.41017l0.26431,-0.1509c0.20896,-0.12449 0.45315,-0.196 0.71404,-0.196c0.69005,0 1.26326,0.50026 1.37674,1.1579c0.30459,0.12072 0.60089,0.37813 0.75638,0.8969c0.22409,0.74762 -0.09465,1.20278 -0.41966,1.45892c0.02014,0.03534 0.03843,0.07032 0.05498,0.10492c0.00211,-0.00249 0.00421,-0.00499 0.00632,-0.00748zM243.95356,167.50579c-1.3914,0.1266 -1.518,-1.26481 -1.518,-1.26481l-0.13677,-1.51906c-0.00053,-2.03307 -0.17646,-4.05832 -0.26505,-6.09062c0,0 -0.01233,-0.28325 0.10172,-0.60011c-0.18428,-0.12519 -0.37492,-0.24348 -0.57207,-0.35436c-2.50575,-1.40929 -6.25899,-1.28321 -8.99605,-1.28252c0,0 -1.37629,0 -1.39691,-1.36597c-0.3018,0.12834 -0.59698,0.26931 -0.87643,0.44035c-1.1316,0.69263 -1.5999,1.16147 -2.11624,1.8535c0.36646,0.16512 0.75302,0.51346 0.75302,1.24836c0,1.39715 -1.39715,1.39715 -1.39715,1.39715c-0.41671,-0.00099 -0.82888,0.01297 -1.23718,0.04023c-1.48782,2.23937 -2.99227,4.99259 -3.01884,7.66387c0.54508,0.03795 1.00403,0.38856 1.1987,0.8737l1.0837,2.53253c0.04889,0.10994 0.09757,0.21994 0.14604,0.33001c0.00872,0.01208 0.01738,0.0242 0.02598,0.03635c0.06183,-0.17629 0.15428,-0.33715 0.28473,-0.47502c0.64657,-0.68334 1.64417,-0.86717 2.63339,-0.97675c0.00861,-0.07813 0.02329,-0.16021 0.04482,-0.24639c0.30078,-1.20419 1.40412,-1.07141 1.64671,-1.02675c1.28731,-1.39887 3.77582,-1.53057 5.39442,-1.41698c2.33813,0.16409 5.45379,1.03129 7.41826,2.8035l1.09234,-0.39686c0.15731,-0.06136 0.32848,-0.09503 0.50752,-0.09503c0.77162,0 1.39715,0.62553 1.39715,1.39715c0,0.58771 -0.36288,1.09067 -0.87681,1.29703l-0.48687,0.20848c0.34027,0.96517 0.47791,1.87292 0.40738,2.69069c0.21547,-0.27432 0.42353,-0.60654 0.70041,-1.12815c0.77836,-1.46636 0.71113,-3.35062 0.77413,-4.97076c0.099,-2.54572 -0.38256,-5.48276 -1.69607,-7.87209c0.06313,1.11888 0.11695,2.23765 0.11666,3.35875l0.12815,1.39259c0,0 0.1266,1.3914 -1.26481,1.518zM240.30547,176.32345c0.76026,-0.05846 1.52108,-0.18701 1.86496,-0.47051c0.57786,-0.47641 0.41955,-1.38788 0.06139,-2.16244c-0.75571,0.41158 -1.67708,0.75688 -2.65657,1.02317c0.18539,0.22755 0.3568,0.45601 0.51264,0.68366zM235.9147,179.28714c-0.04086,-0.00344 -0.08121,-0.00691 -0.12107,-0.01041c0.88798,0.17521 1.76394,0.23239 2.59766,0.13787c0.1411,-0.01599 0.28055,-0.036 0.41842,-0.05983c-0.96558,0.04604 -1.93771,0.01288 -2.89501,-0.06763zM229.56485,172.67485c-0.43855,-0.03077 -0.87624,-0.04156 -1.30915,-0.03355c-0.09857,0.00183 0.21488,-0.00848 0.29067,0.05456c0.39353,0.32727 0.68023,0.77277 1.08336,1.08814c0.5622,0.4398 1.19784,0.77662 1.79676,1.16493c2.04006,0.9766 2.39379,1.38303 4.68174,1.55062c0.43599,0.03194 0.87247,-0.00459 1.30908,-0.04718c-0.32439,-0.42932 -0.6859,-0.81827 -1.07775,-1.16887c-0.87718,0.07266 -1.70804,0.07101 -2.41542,-0.01409c-1.8029,-0.21688 -3.63011,-1.17486 -4.3593,-2.59456zM218.82491,162.87581l0.69775,2.64909c0.06388,-0.00894 0.12914,-0.01357 0.19548,-0.01357c0.37301,0 0.71188,0.14618 0.96244,0.38436c0.33565,-1.83867 1.10046,-3.64939 2.02352,-5.32771c-1.53009,0.36016 -3.03003,0.84685 -4.53822,1.35941c-0.00436,0.01906 -0.00911,0.03796 -0.01424,0.05671l-0.0002,0.00077c0.33342,0.188 0.58188,0.50896 0.67346,0.89093zM225.68451,182.6473c-0.22449,0.63607 -0.66398,1.08016 -1.44489,1.11415c-0.03156,0.00137 -0.06298,0.002 -0.09426,0.00189c0.23986,0.66349 0.21284,1.39109 0.02339,2.13575c0.77178,-0.63946 1.539,-1.27216 2.33399,-1.87659c-0.28825,-0.44671 -0.55501,-0.90785 -0.81823,-1.3752zM214.06548,169.61681l1.01564,-0.64575c-0.04431,-0.19404 -0.08836,-0.3867 -0.13223,-0.57782c-0.26451,0.3664 -0.57389,0.79489 -0.88342,1.22357zM215.04303,175.74569c-0.58533,0.91915 -1.18949,1.82654 -1.80884,2.72341c0.77676,-0.49578 1.58983,-0.89914 2.27892,-1.16184c0.47432,-0.18082 1.03216,-0.48981 1.55579,-0.62538c-0.28227,-0.8825 -0.53871,-1.7775 -0.77648,-2.6718c-0.36132,0.60319 -0.87049,1.1406 -1.24939,1.73561zM217.71544,183.03104c-0.28656,0.55923 -0.52358,1.15847 -0.84919,1.69463c1.01093,-0.43766 2.19827,-0.80827 2.32443,-0.85687c0.32385,-0.12476 0.6326,-0.30508 0.94947,-0.45325c-0.50466,-0.75166 -0.95872,-1.55754 -1.37057,-2.4022c-0.33757,0.75624 -0.76781,1.45891 -1.05414,2.01769z" fill="#0040ff" stroke="none" stroke-width="0.5"/><path d="M236.6738,165.39398c-1.39715,0 -1.39715,-1.39715 -1.39715,-1.39715l0.03584,0.04973c-0.2202,-0.96431 -0.49249,-1.92202 -0.86301,-2.83914c0,0 -0.51929,-1.29706 0.77777,-1.81635c1.29706,-0.51929 1.81635,0.77777 1.81635,0.77777c0.418,1.05228 0.73426,2.14621 0.99151,3.24886l0.03584,0.57912c0,0 0,1.39715 -1.39715,1.39715z" fill="#0040ff" stroke="none" stroke-width="0.5"/><text transform="translate(204.89985,137.72073) scale(0.23009,0.22796)" font-size="40" xml:space="preserve" fill="#000000" fill-rule="nonzero" stroke="none" stroke-width="1" stroke-linecap="butt" stroke-linejoin="miter" stroke-miterlimit="10" stroke-dasharray="" stroke-dashoffset="0" font-family="Sans Serif" font-weight="normal" text-anchor="start" style="mix-blend-mode: normal"><tspan x="0" dy="0">SawnIC</tspan><tspan x="0" dy="46.15px">the pighedge</tspan></text></g></g></svg>