<svg version="1.1" xmlns="http://www.w3.org/2000/svg" xmlns:xlink="http://www.w3.org/1999/xlink" width="208.36039" height="220.76923" viewBox="0,0,208.36039,220.76923"><g transform="translate(-71,-99.17192)"><g data-paper-data="{&quot;isPaintingLayer&quot;:true}" fill-rule="nonzero" stroke-linejoin="miter" stroke-miterlimit="10" stroke-dasharray="" stroke-dashoffset="0" style="mix-blend-mode: normal"><path d="M277.36039,180c0,21.05901 -16.72682,38.13071 -37.36039,38.13071c-20.63357,0 -37.36039,-17.0717 -37.36039,-38.13071c0,-21.05901 16.72682,-38.13071 37.36039,-38.13071c20.63357,0 37.36039,17.0717 37.36039,38.13071z" fill="#ffffff" stroke="#000000" stroke-width="4" stroke-linecap="butt"/><path d="M243.86367,219.82236l0.56607,57.73878l-7.35886,37.36039" fill="none" stroke="#000000" stroke-width="4" stroke-linecap="round"/><path d="M249.52433,314.92153l-4.52853,-35.09612" fill="none" stroke="#000000" stroke-width="4" stroke-linecap="round"/><path d="M230.84414,287.18428l13.5856,-37.92646l18.11413,33.96399" fill="none" stroke="#000000" stroke-width="4" stroke-linecap="round"/><path d="M232.07398,203.57227l36.80847,0.72173" fill="none" stroke="#000000" stroke-width="4" stroke-linecap="round"/><path d="M262.38684,177.58982l-1.44347,13.71296" fill="none" stroke="#000000" stroke-width="4" stroke-linecap="round"/><path d="M243.62173,175.42461l-2.1652,15.87817" fill="none" stroke="#000000" stroke-width="4" stroke-linecap="round"/><path d="M148.5,195.5c0,20.15839 -16.11775,36.5 -36,36.5c-19.88225,0 -36,-16.34161 -36,-36.5c0,-20.15839 16.11775,-36.5 36,-36.5c19.88225,0 36,16.34161 36,36.5z" fill="#ffffff" stroke="#000000" stroke-width="4" stroke-linecap="butt"/><path d="M73,179v-25l12,-15.5l7.58358,11.13874l7.83273,-12.49847l9.94918,12.27129l9.07697,-13.88944l11.63852,13.83521l7.41821,-18.85364l13.50082,23.49631v25z" fill="#ffffff" stroke="#000000" stroke-width="4" stroke-linecap="butt"/><path d="M107.5,215.11383c0,0 10.07376,5.82042 15.48532,5.9844c5.58308,0.16918 17.51468,-4.9844 17.51468,-4.9844" fill="none" stroke="#000000" stroke-width="4" stroke-linecap="round"/><path d="M122,195.11383v14.5" fill="none" stroke="#000000" stroke-width="4" stroke-linecap="round"/><path d="M138,195.11384v14.5" fill="none" stroke="#000000" stroke-width="4" stroke-linecap="round"/><path d="M112,234.44116l1.5,45l-3,37.5" fill="none" stroke="#000000" stroke-width="4" stroke-linecap="round"/><path d="M114,278.44116l9,39.5" fill="none" stroke="#000000" stroke-width="4" stroke-linecap="round"/><path d="M105.5,284.44116l7,-33l17.5,33.5" fill="none" stroke="#000000" stroke-width="4" stroke-linecap="round"/><text transform="translate(102.62462,120.92192) scale(0.5,0.5)" font-size="40" xml:space="preserve" fill="#000000" fill-rule="nonzero" stroke="none" stroke-width="1" stroke-linecap="butt" stroke-linejoin="miter" stroke-miterlimit="10" stroke-dasharray="" stroke-dashoffset="0" font-family="Sans Serif" font-weight="normal" text-anchor="start" style="mix-blend-mode: normal"><tspan x="0" dy="0">Guess what!</tspan></text></g></g></svg>