<svg version="1.1" xmlns="http://www.w3.org/2000/svg" xmlns:xlink="http://www.w3.org/1999/xlink" width="290.23195" height="118.19306" viewBox="0,0,290.23195,118.19306"><g transform="translate(-130.85097,-102.86575)"><g data-paper-data="{&quot;isPaintingLayer&quot;:true}" fill-rule="nonzero" stroke="#000000" stroke-width="2" stroke-linejoin="miter" stroke-miterlimit="10" stroke-dasharray="" stroke-dashoffset="0" style="mix-blend-mode: normal"><path d="M131.85098,220.05881v-116.19306h85.51809v116.19306z" fill="#ffffff" stroke-linecap="butt"/><path d="M213.18612,162.42705c0,4.62036 -3.6415,8.3659 -8.13351,8.3659c-4.49202,0 -8.13352,-3.74554 -8.13352,-8.3659c0,-4.62036 3.6415,-8.3659 8.13352,-8.3659c4.49202,0 8.13351,3.74554 8.13351,8.3659z" fill="#ffffff" stroke-linecap="butt"/><path d="M357.56076,215.58652l0.86837,-48.62835h61.6538v46.02326" fill="none" stroke-linecap="round"/><path d="M341.87228,214.78283l0.3173,-24.1148h-28.2397l0.3173,-39.9798" fill="none" stroke-linecap="round"/><path d="M313.31528,190.66803l-0.9519,22.8456" fill="none" stroke-linecap="round"/><path d="M346.10319,152.79464c0,6.5715 -5.32725,11.89875 -11.89875,11.89875c-6.5715,0 -11.89875,-5.32725 -11.89875,-11.89875c0,-6.5715 5.32725,-11.89875 11.89875,-11.89875c6.5715,0 11.89875,5.32725 11.89875,11.89875z" fill="#ffffff" stroke-linecap="butt"/><path d="M349.91077,195.78879l-14.5958,-9.519l-0.6346,-21.2591" fill="none" stroke-linecap="round"/><path d="M335.63228,185.63519l13.6439,15.5477" fill="none" stroke-linecap="round"/><path d="M325.79598,190.62733l8.5671,-16.1823l9.519,12.0574" fill="none" stroke-linecap="round"/><path d="M332.041,160.34968c0,0 3.50813,-1.7262 5.04369,-1.69776c1.37207,0.02541 3.73452,1.86032 3.73452,1.86032" fill="none" stroke-linecap="round"/><path d="M333.34148,151.89658l-0.16256,3.57631" fill="none" stroke-linecap="round"/><path d="M340.00642,151.89658l-0.16256,3.57631" fill="none" stroke-linecap="round"/><path d="M331.87843,147.01979l3.73887,2.76351" fill="none" stroke-linecap="round"/><path d="M340.98178,147.83259l-2.76351,2.27583" fill="none" stroke-linecap="round"/><path d="M391.85531,135.26576l-0.78883,30.0215l-28.15334,-0.09112" fill="none" stroke-linecap="round"/></g></g></svg>