<svg version="1.1" xmlns="http://www.w3.org/2000/svg" xmlns:xlink="http://www.w3.org/1999/xlink" width="144.34184" height="121.74183" viewBox="0,0,144.34184,121.74183"><g transform="translate(-58.79115,-206.95582)"><g data-paper-data="{&quot;isPaintingLayer&quot;:true}" fill-rule="nonzero" stroke="#000000" stroke-width="4" stroke-linejoin="miter" stroke-miterlimit="10" stroke-dasharray="" stroke-dashoffset="0" style="mix-blend-mode: normal"><path d="M156.8306,324.59688c-17.36775,-7.32779 -26.52968,-31.6642 -20.46375,-54.35687c6.06594,-22.69267 25.0627,-35.14837 42.43045,-27.82057c17.36775,7.32779 26.52968,31.6642 20.46375,54.35687c-6.06594,22.69267 -25.0627,35.14837 -42.43045,27.82057z" data-paper-data="{&quot;index&quot;:null}" fill="#ffffff" stroke-linecap="butt"/><path d="M135.50329,267.91003l-49.7649,-22.98474c0,0 -11.85431,-13.74754 -12.71717,-19.77014c-0.85486,-5.9667 7.56372,-16.19933 7.56372,-16.19933" data-paper-data="{&quot;index&quot;:null}" fill="none" stroke-linecap="round"/><path d="M87.02307,245.15828l-26.23192,-8.41717" data-paper-data="{&quot;index&quot;:null}" fill="none" stroke-linecap="round"/><path d="M95.21225,220.78218c0,0 11.12703,7.15029 14.46697,13.09274c3.33233,5.92888 5.54986,22.52138 5.54986,22.52138" data-paper-data="{&quot;index&quot;:null}" fill="none" stroke-linecap="round"/><path d="M114.27756,257.98279c0,0 -9.7396,11.54754 -15.24488,13.74768c-5.51788,2.20516 -17.82464,-0.53173 -17.82464,-0.53173" data-paper-data="{&quot;index&quot;:null}" fill="none" stroke-linecap="round"/><path d="M155.88185,265.5967l-13.83437,43.86172" data-paper-data="{&quot;index&quot;:null}" fill="none" stroke-linecap="round"/><path d="M164.6538,311.70733l-12.95323,-6.79052" data-paper-data="{&quot;index&quot;:null}" fill="none" stroke-linecap="round"/></g></g></svg>