<svg version="1.1" xmlns="http://www.w3.org/2000/svg" xmlns:xlink="http://www.w3.org/1999/xlink" width="290.23195" height="118.19306" viewBox="0,0,290.23195,118.19306"><g transform="translate(-130.851,-102.86575)"><g data-paper-data="{&quot;isPaintingLayer&quot;:true}" fill-rule="nonzero" stroke="#000000" stroke-linejoin="miter" stroke-miterlimit="10" stroke-dasharray="" stroke-dashoffset="0" style="mix-blend-mode: normal"><path d="M357.56078,215.58652l0.86837,-48.62835h61.6538v46.02326" fill="none" stroke-width="2" stroke-linecap="round"/><path d="M341.8723,214.78283l0.3173,-24.1148h-28.2397l0.3173,-39.9798" fill="none" stroke-width="2" stroke-linecap="round"/><path d="M312.3634,213.51363l0.9519,-22.8456" fill="none" stroke-width="2" stroke-linecap="round"/><path d="M346.10321,152.79464c0,6.5715 -5.32725,11.89875 -11.89875,11.89875c-6.5715,0 -11.89875,-5.32725 -11.89875,-11.89875c0,-6.5715 5.32725,-11.89875 11.89875,-11.89875c6.5715,0 11.89875,5.32725 11.89875,11.89875z" fill="#ffffff" stroke-width="2" stroke-linecap="butt"/><path d="M349.9108,195.78879l-14.5958,-9.519l-0.6346,-21.2591" fill="none" stroke-width="2" stroke-linecap="round"/><path d="M349.27619,201.18289l-13.6439,-15.5477" fill="none" stroke-width="2" stroke-linecap="round"/><path d="M325.79598,190.62733l8.5671,-16.1823l9.519,12.0574" fill="none" stroke-width="2" stroke-linecap="round"/><path d="M332.04102,160.34968c0,0 3.50813,-1.7262 5.04369,-1.69776c1.37207,0.02541 3.73452,1.86032 3.73452,1.86032" fill="none" stroke-width="2" stroke-linecap="round"/><path d="M333.17894,155.47289l0.16256,-3.57631" fill="none" stroke-width="2" stroke-linecap="round"/><path d="M339.84388,155.47289l0.16256,-3.57631" fill="none" stroke-width="2" stroke-linecap="round"/><path d="M331.87845,147.01979l3.73887,2.76351" fill="none" stroke-width="2" stroke-linecap="round"/><path d="M338.21829,150.10842l2.76351,-2.27583" fill="none" stroke-width="2" stroke-linecap="round"/><path d="M391.85532,135.26576l-0.78883,30.0215l-28.15334,-0.09112" fill="none" stroke-width="2" stroke-linecap="round"/><g fill="#ffffff" stroke-width="2" stroke-linecap="butt"><path d="M131.851,220.05881v-116.19306h25.60101v116.19306z"/><path d="M156.19977,162.42705c0,4.62036 -1.09013,8.3659 -2.43488,8.3659c-1.34475,0 -2.43488,-3.74554 -2.43488,-8.3659c0,-4.62036 1.09013,-8.3659 2.43488,-8.3659c1.34475,0 2.43488,3.74554 2.43488,8.3659z"/></g><path d="M204.79572,148.20779c0,9.29585 -7.53577,16.83162 -16.83162,16.83162c-9.29585,0 -16.83162,-7.53577 -16.83162,-16.83162c0,-9.29585 7.53577,-16.83162 16.83162,-16.83162c9.29585,0 16.83162,7.53577 16.83162,16.83162z" fill="#ffffff" stroke-width="2.5" stroke-linecap="butt"/><path d="M189.37334,166.69046l1.31491,29.00781l-5.91708,16.43775" fill="none" stroke-width="2.5" stroke-linecap="round"/><path d="M190.2995,194.96557l5.91708,19.77625" fill="none" stroke-width="2.5" stroke-linecap="round"/><path d="M184.91981,150.49151l0.34073,-6.13313" fill="none" stroke-width="2.5" stroke-linecap="round"/><path d="M193.43805,142.99546v9.1997" fill="none" stroke-width="2.5" stroke-linecap="round"/><path d="M168.96608,140.48925v-8.5671l5.7114,-6.9806l4.98496,6.15809l7.68944,-6.49l6.63487,5.85996l8.87378,-3.37048l3.92809,5.82293l1.83996,-0.99989v8.5671z" fill="#ffffff" stroke-width="2.5" stroke-linecap="butt"/><path d="M183.06713,158.70626c0,0 6.14904,-1.78797 8.66472,-1.83134c2.04135,-0.03519 5.30583,1.59047 5.30583,1.59047" fill="none" stroke-width="2.5" stroke-linecap="round"/><path d="M189.75,178.25l-8.5,21" fill="none" stroke-width="2.5" stroke-linecap="round"/><path d="M189.25,181.25l10,19.5" fill="none" stroke-width="2.5" stroke-linecap="round"/></g></g></svg>