<svg version="1.1" xmlns="http://www.w3.org/2000/svg" xmlns:xlink="http://www.w3.org/1999/xlink" width="232.22823" height="187.18318" viewBox="0,0,232.22823,187.18318"><g transform="translate(-123.88588,-86.40841)"><g data-paper-data="{&quot;isPaintingLayer&quot;:true}" fill-rule="nonzero" stroke-linecap="butt" stroke-linejoin="miter" stroke-miterlimit="10" stroke-dasharray="" stroke-dashoffset="0" style="mix-blend-mode: normal"><path d="M125.88589,271.59159v-183.18318h228.22823v183.18318z" fill="#ffffff" stroke="#000000" stroke-width="4"/><path d="M141.65165,258.82883v-157.65766h196.69669v157.65766z" fill="#ffffff" stroke="#000000" stroke-width="4"/><path d="M339.13675,226.33013c-2.08013,1.38675 -3.46688,-0.69338 -3.46688,-0.69338l0.15165,-0.56556c-2.0244,-0.82659 -5.86498,-1.91604 -6.07152,-4.82119c-0.1022,-1.43745 1.85564,-2.20532 2.7781,-3.31247c1.54286,-1.85176 3.21424,-3.59304 4.85908,-5.35483c0.56259,-0.60259 1.01635,-1.30321 1.59677,-1.88864c0.14559,-0.14685 0.75244,-0.22379 0.55349,-0.28018c-7.48276,-2.12096 -15.71017,-5.55944 -23.60332,-6.68391c-9.41562,-1.34136 -18.73121,1.48375 -27.72708,3.73271c-1.40843,0.32094 -2.91289,0.35929 -4.2253,0.96282c-1.81827,0.83615 -2.72794,3.31569 -4.67873,3.76257c-1.33922,0.30678 -6.13332,-1.1941 -7.29188,-1.54974c-5.41417,-1.66198 -10.89631,-3.58307 -16.44012,-4.76046c-9.11635,-1.93612 -18.42982,-2.64237 -27.66568,-2.1327c-7.26562,0.40095 -13.96834,-0.82007 -20.91459,1.62065c-4.48759,1.93045 -8.80597,3.50539 -12.77754,6.41188c-3.97698,2.91045 -7.90195,7.44148 -12.54386,9.29713c-7.62719,3.04904 -12.94364,-8.5406 -20.83936,-5.07013c-2.96835,1.3047 -4.37941,5.6493 -5.9833,8.10689c-2.61936,4.01355 -5.72239,7.80596 -8.59669,11.63843c0,0 -1.5,2 -3.5,0.5c-2,-1.5 -0.5,-3.5 -0.5,-3.5c2.80607,-3.74137 5.8496,-7.44101 8.40331,-11.36157c2.21451,-3.3998 3.93057,-8.16725 8.0167,-9.89311c5.01982,-2.12024 9.07377,-0.7876 13.65343,1.49687c1.05395,0.52574 5.64414,4.47785 7.50721,3.43299c4.17809,-2.34317 7.58582,-5.89279 11.43807,-8.68852c4.35493,-3.16055 9.01115,-4.92717 13.91688,-7.03361c1.71698,-0.58542 3.38292,-1.35022 5.15093,-1.75627c5.4021,-1.24068 11.76458,0.11533 17.25813,-0.19195c9.68578,-0.54177 19.45972,0.20276 29.01509,2.23212c4.63047,0.98341 9.33704,2.50121 13.87221,3.8726c2.12261,0.64186 4.2378,1.30802 6.35707,1.96083c0.46006,0.14171 0.88608,0.58684 1.35795,0.49155c1.51544,-0.30604 1.92514,-2.57334 3.32127,-3.23743c1.70617,-0.81157 3.65075,-0.97502 5.47612,-1.46253c9.61775,-2.40444 19.51451,-5.2532 29.5715,-3.84193c4.89409,0.68677 10.04165,2.68619 14.81685,3.98019c4.20461,1.13938 4.8233,1.10845 8.9478,3.17151c1.26046,0.63047 3.04018,0.88535 3.63203,2.16439c1.97832,4.27532 -3.09705,7.85767 -5.3665,10.34972c-0.7066,0.77591 -1.23105,1.73693 -1.93782,2.50459c0.33941,0.16582 0.67402,0.35354 1.02024,0.48837l2.15165,2.43444c0,0 1.38675,2.08013 -0.69338,3.46688z" fill="#000000" stroke="none" stroke-width="0.5"/><path d="M210.60627,151.03624c-0.12653,-0.21091 -0.25418,-0.42086 -0.38293,-0.62987c-0.51998,0.35971 -1.02189,0.72254 -1.49754,1.09193c-3.2381,2.51467 -6.29829,5.07593 -9.23905,7.76613c0.02183,0.13288 0.03318,0.26928 0.03318,0.40833c0,0.47506 -0.1325,0.91917 -0.36257,1.29739l-2.46729,4.22584l-0.0083,-0.00485c-0.0071,0.01815 -0.01424,0.0363 -0.02142,0.05443c-1.72227,4.35182 -5.99397,8.68041 -8.74223,12.43016c-3.04074,4.14883 -5.93145,8.3562 -8.76154,12.62151c3.18192,-2.66441 6.64125,-5.10488 9.70159,-7.38496l2.21248,-1.99872c0.44417,-0.40449 1.03466,-0.65109 1.68274,-0.65109c1.38071,0 2.5,1.11929 2.5,2.5v2.84183h-0.04286c0.00661,0.15486 0.00655,0.3104 -0.0011,0.46671c-0.08905,1.82012 -1.30304,3.40372 -1.96435,5.10179c-2.64231,6.78476 -5.26382,14.77154 -9.56182,20.68107c-0.59923,0.82391 -1.87529,1.04581 -2.36026,1.94175c-0.42199,0.77958 1.40084,-1.09212 2.15369,-1.56014c0.97402,-0.6055 7.5031,-4.20033 8.32452,-4.65374c3.59957,-1.98694 6.47849,-4.77003 9.89563,-7.01952c2.95413,-1.94469 6.25498,-2.93365 9.48463,-4.25597c-0.20917,-0.08005 -0.41639,-0.16558 -0.62145,-0.25705c-9.81433,-4.37808 -9.30949,-17.69549 -5.48325,-25.73556c0.43834,-0.92108 0.89876,-1.82349 1.37837,-2.71068c-0.65814,-0.76379 -1.1089,-2.11431 -1.2681,-4.31386c-0.1529,-2.11253 1.33493,-4.04409 2.3461,-5.90519c0.93473,-1.72041 2.05836,-3.41768 3.28123,-5.08958zM190.48223,127.51777c0,0 -1.76777,-1.76777 0,-3.53553c1.76777,-1.76777 3.53553,0 3.53553,0c6.16767,6.18282 12.32699,12.25579 17.41064,19.25667c2.52571,-1.71192 6.88352,-4.65178 6.97075,-4.67561c0.14077,-0.03847 0.28214,-0.07287 0.42407,-0.10356l-0.00986,-0.03948l4.21216,-1.05209c0.21031,-0.05744 0.43168,-0.0881 0.6602,-0.0881c1.38071,0 2.5,1.11929 2.5,2.5c0,0.5276 -0.16344,1.01703 -0.44244,1.42042l-1.92733,2.87411l-0.02167,-0.01453l-0.03007,0.08874c-2.26386,2.90007 -4.45896,5.84589 -6.66021,8.7901c1.47889,-1.30642 3.02874,-2.53196 4.66461,-3.62624l0.21865,-0.03369l-0.02722,-0.0613l3.15022,-1.39884c0.32291,-0.15214 0.68365,-0.23719 1.06425,-0.23719c1.38071,0 2.5,1.11929 2.5,2.5c0,0.04057 -0.00097,0.08092 -0.00288,0.12102c3.26236,-1.30129 6.65712,-2.31858 10.10418,-2.96435c-1.07196,-3.95324 -3.73075,-7.97072 -5.66956,-11.20206c0,0 -1.28624,-2.14373 0.85749,-3.42997c2.14373,-1.28624 3.42997,0.85749 3.42997,0.85749c2.37925,3.96542 5.11073,8.47039 6.27909,13.11848c4.36029,-0.34644 8.74348,-0.04436 12.99184,1.07863c3.41877,0.9037 7.42222,2.50884 9.97792,5.10362c0.09012,-0.08605 0.18016,-0.17213 0.27012,-0.25824l0.05436,-0.03053l-0.00872,-0.01005l3.76673,-3.26855c0.44003,-0.38612 1.01677,-0.62021 1.64819,-0.62021c1.38071,0 2.5,1.11929 2.5,2.5c0,0.04457 -0.00117,0.08887 -0.00347,0.13286l-0.12244,2.65538l-2.99735,2.38484c0,0 -0.58862,0 -1.19464,-0.28562l-0.28543,0.24768c-0.29432,0.28178 -0.58909,0.56454 -0.88436,0.84803c1.78869,4.29451 2.06254,9.78359 0.3229,13.56004c-2.16397,4.69757 -7.01573,8.64221 -10.87926,11.8441c-3.54536,2.90004 -7.5982,4.60725 -11.68423,6.64844c-4.24121,2.11871 -8.54136,4.32725 -13.00385,5.9655c7.00867,1.25175 12.40013,6.06829 16.76134,12.85076c0.96366,1.49866 2.26696,2.83548 2.86034,4.51552c1.87128,5.29815 0.64581,11.89928 -2.86411,16.49234c1.92985,0.75578 3.70132,1.79587 5.20093,3.28276c2.95671,2.93161 3.34608,8.39823 2.30095,12.11053c-0.48303,1.71571 -4.51203,5.93864 -5.196,6.71605c-5.73694,6.52067 -15.36239,10.9262 -24.16191,9.50229c-0.30614,-0.04954 -6.94652,-2.16834 -8.24501,-2.58113c-1.52838,-0.48467 -3.03291,-1.05225 -4.58515,-1.45401c-1.96282,-0.50803 -4.38718,0.02185 -5.94797,-1.27225c-1.60884,-1.33394 -1.7157,-3.81221 -2.51385,-5.74372c-0.90841,-2.19832 -1.39289,-4.59223 -1.67773,-7.05052c-1.0968,-0.08291 -1.99599,-0.87351 -2.24211,-1.91636l-1.2425,-4.78823c-0.96005,-2.0527 -1.59614,-4.1691 -1.24863,-5.94342c0.03675,-0.18762 0.08077,-0.36803 0.13161,-0.54159c-2.05338,2.098 -4.13295,4.16676 -6.29256,6.1196c-1.87409,1.69465 -3.90951,3.2845 -5.38172,5.33794l-1.61514,1.12049c0,0 -0.69452,0.34695 -1.50285,0.26713c-1.93066,1.80335 -5.86577,5.46285 -7.21396,6.03254c-0.09509,0.04018 -0.19082,0.07818 -0.28715,0.11415l0.01272,0.02865l-3.15022,1.39884c-0.32291,0.15214 -0.68365,0.23719 -1.06425,0.23719c-1.38071,0 -2.5,-1.11929 -2.5,-2.5c0,-0.3296 0.06378,-0.6443 0.17968,-0.93244l1.04639,-2.78786l0.08401,0.03153l0.02709,-0.28418c4.4668,-6.87013 9.16373,-14.3848 15.59326,-19.64218c0.37545,-0.30701 0.75624,-0.61104 1.14209,-0.91187c-0.49102,0.14452 -1.09196,0.12898 -1.7873,-0.24737c-6.68768,6.16623 -12.62994,13.20426 -18.64778,19.92889l-0.0487,0.02826l0.01124,0.01097l-3.49055,3.57631c-0.45412,0.46617 -1.0887,0.75568 -1.79091,0.75568c-1.38071,0 -2.5,-1.11929 -2.5,-2.5c0,-0.40749 0.09749,-0.7922 0.27042,-1.1321l1.62596,-3.37322l0.03957,0.01907c0.0317,-0.09081 0.0651,-0.18117 0.10033,-0.27105c0.01102,-0.02813 1.14252,-1.43483 2.45542,-3.06215c-0.22508,-0.37529 -0.35447,-0.81453 -0.35447,-1.28398c0,-0.72692 0.31025,-1.38138 0.80556,-1.83819l2.6184,-2.4292c0.41267,-0.38285 0.82466,-0.76597 1.23598,-1.14944c0.53563,-0.82411 1.34587,-1.4275 2.16299,-2.02609c0.91867,-0.86479 1.83392,-1.73206 2.74573,-2.60274c2.22527,-2.67463 4.48132,-5.29271 6.84858,-7.82747c-2.12247,0.45906 -4.37949,0.7682 -5.56328,-0.71742c-1.52737,-1.9168 1.07446,-4.79638 1.91149,-7.09994c0.00569,-0.01566 4.52871,-8.83503 4.5598,-8.89824c1.8152,-3.69028 3.22655,-7.37373 4.74664,-11.18367c-2.68728,2.22238 -5.27034,4.53746 -8.00208,6.75075c-1.43639,1.16378 -2.6548,2.79873 -4.41897,3.35129c-0.15041,0.04711 -0.30162,0.08991 -0.45357,0.1288l0.01236,0.04342l-4.75354,1.35283c-0.2338,0.07233 -0.48226,0.11128 -0.73982,0.11128c-1.38071,0 -2.5,-1.11929 -2.5,-2.5c0,-0.58248 0.1992,-1.11843 0.5332,-1.54345l2.98868,-3.88182c4.68315,-7.26272 9.55033,-14.2898 14.63028,-21.26532c-1.2883,-0.10078 -2.30231,-1.17812 -2.30231,-2.4923c0,-0.64176 0.24182,-1.22705 0.6393,-1.66971l2.84335,-3.1958l0.00286,0.00255l0.00467,-0.01097c6.26415,-6.91155 12.97081,-13.01591 20.37682,-18.60271c-4.91284,-6.78177 -10.90183,-12.65944 -16.88283,-18.62469zM241.75,155.25c-2.5,0 -2.5,-2.5 -2.5,-2.5l0,-0.46076c-4.98295,0.92879 -9.798,2.72074 -14.28968,5.12369c-0.82332,0.87505 -1.84688,1.61053 -2.67657,2.48019c-2.71851,2.84946 -5.84448,5.36231 -9.45032,7.06206c-0.09515,0.04485 -0.19014,0.0896 -0.28493,0.1341c-1.05534,1.73714 -2.04929,3.52091 -2.96388,5.38754c-2.58027,5.26623 -4.12002,16.14725 3.0498,19.02298c2.27224,0.91137 4.81661,0.96568 7.26074,1.10662c1.70918,0.09856 3.38788,0.01417 5.03908,-0.21379c1.50295,-0.50988 3.01077,-0.96129 4.46504,-1.37733l0.96292,-0.32317c0,0 0.73514,-0.24483 1.52319,-0.05262c4.5077,-1.59636 8.82619,-3.90219 13.02512,-5.99978c3.71635,-1.85652 7.53844,-3.35644 10.73362,-6.02976c3.26522,-2.69 7.58342,-6.05379 9.48268,-9.99193c0.45941,-0.95259 0.4219,-2.07742 0.51204,-3.13116c0.14447,-1.68884 0.01748,-3.18928 -0.33632,-4.51901c-3.24501,3.07417 -6.57634,6.10466 -10.05978,8.78753c-3.50391,2.69864 -7.72482,4.80528 -11.47932,7.13571c-0.271,0.16821 -8.57827,5.32929 -8.72209,5.39887c-3.65987,1.77071 -7.62881,2.27771 -11.36285,3.78119c0,0 -2.32119,0.92848 -3.24967,-1.39272c-0.92848,-2.32119 1.39272,-3.24967 1.39272,-3.24967c3.6099,-1.43557 7.52802,-1.9248 11.03508,-3.63624c11.01274,-5.3742 20.83727,-13.08178 29.85546,-21.34783c-2.722,-2.75186 -7.00384,-4.12655 -11.56129,-4.6329c-2.31437,-0.25713 -4.61933,-0.30024 -6.90077,-0.15219l0,1.09035c0,0 0,2.5 -2.5,2.5zM217.47416,203.14833c0.92776,2.32148 -1.39373,3.24924 -1.39373,3.24924c-0.3375,0.13486 -0.67514,0.26979 -1.01281,0.40498c-0.05093,0.77028 0.00596,1.59744 0.18707,2.48694c0.11209,0.55054 0.25178,1.06302 0.41507,1.54764c1.38441,-0.3007 2.77005,-0.54122 4.15071,-0.71632c0,0 2.48073,-0.30981 2.79054,2.17092c0.30981,2.48073 -2.17092,2.79054 -2.17092,2.79054c-0.76406,0.09376 -1.53016,0.21062 -2.29698,0.34934c0.3889,0.57534 0.79566,1.16712 1.20969,1.80237c1.28698,1.8011 2.24968,3.88661 3.64611,5.58732c0.43115,-0.06278 0.86327,-0.11152 1.29752,-0.12636c5.97414,-0.20412 13.94269,1.07903 19.15598,4.26923c0.13612,0.0833 0.2715,0.16899 0.40603,0.25699c0.53666,0.07986 1.07149,0.16596 1.60272,0.26083c3.55256,-3.05125 5.21231,-9.0971 3.61234,-13.30248c-0.50326,-1.32277 -1.58655,-2.3442 -2.36401,-3.5268c-0.22924,-0.34869 -0.46055,-0.69208 -0.6942,-1.02969c0.9169,2.09202 1.24712,4.42371 0.20817,6.50873c-5.98154,12.00401 -24.54783,4.72703 -21.38529,-8.12742c0.03153,-0.12815 0.06591,-0.25356 0.10302,-0.37637c-0.25189,0.12573 -0.49465,0.25764 -0.72704,0.39532c0,0 -2.17109,1.23951 -3.4106,-0.93158c-1.23951,-2.17109 0.93158,-3.4106 0.93158,-3.4106c2.75323,-1.52908 6.09478,-2.45745 9.44093,-2.57687l2.23505,-1.12645c-2.03391,-0.3836 -4.26684,-0.36021 -6.74672,0.15575c0,0 -2.45154,0.48987 -2.9414,-1.96167c-0.00825,-0.04131 -0.01567,-0.08205 -0.02228,-0.12225c-2.63449,1.02715 -5.11732,2.36233 -6.74153,4.24125c0.19572,0.21877 0.37192,0.49948 0.51498,0.85746zM197.01019,215.86762c-1.02924,0.73766 -2.03782,1.50117 -3.02796,2.28736l-0.753,1.56778l-1.17696,1.98084c0,0 -0.02012,0.03351 -0.05953,0.08963c5.47529,-4.0271 11.84846,-7.39752 18.43169,-9.53331l0.3374,-0.29496c-0.16117,-0.53924 -0.3005,-1.10986 -0.41531,-1.72163c-0.09119,-0.48592 -0.16018,-0.95925 -0.20801,-1.4204c-4.58104,1.94844 -9.05815,4.12757 -13.12833,7.04468zM211.4383,201.5709c-2.4075,0.90944 -4.84122,1.73163 -7.00683,3.17724c-1.74778,1.1667 -3.37052,2.45243 -5.01826,3.7031c3.63706,-2.02922 7.45967,-3.70664 11.32061,-5.28822c0.19635,-0.55515 0.43246,-1.08535 0.70448,-1.59212zM211.78572,218.76432l-0.01632,-0.01337c-0.02138,0.03589 -0.04293,0.07169 -0.06467,0.1074c-0.888,1.45904 -2.41385,2.41716 -3.62132,3.62521c-0.37257,0.37275 -0.74409,0.74759 -1.1149,1.12402c0.15457,-0.0299 0.31421,-0.04555 0.47752,-0.04555c0.66591,0 1.27101,0.26036 1.71906,0.68483c0.27102,-0.07502 0.53467,-0.15074 0.78807,-0.22945c1.66979,-0.51864 3.2903,-1.33637 5.03308,-1.47741c0.74699,-0.06045 1.48304,0.10449 2.21953,0.29013c-0.92302,-1.29014 -1.73088,-2.42502 -1.98674,-2.78334c-0.70602,-1.09626 -1.38194,-2.07342 -1.99991,-3.03283zM198.99181,223.10029c-2.28533,1.42039 -4.45094,2.96632 -6.44709,4.59092c-3.69793,3.00963 -6.75931,6.89077 -9.5475,10.90839c0.39726,-0.31299 0.76805,-0.61939 1.095,-0.92073c5.18929,-4.78282 10.31203,-9.20109 14.89959,-14.57858zM245.30339,237.5463c-0.05608,-1.25388 -0.54077,-2.50206 -1.38876,-3.63699c-0.68702,0.19956 -1.39941,0.34921 -2.12394,0.4561c0.57985,0.33938 1.11304,0.72038 1.58617,1.14715c0.72239,0.6516 1.38044,1.32651 1.92652,2.03374zM219.35114,228.24398c-1.36477,-0.02423 -2.67035,-0.80999 -4.03203,-0.71507c-1.76111,0.12276 -3.46665,0.63861 -5.13623,1.2686l0.1701,2.03943c0.46955,5.62966 0.37949,11.5424 2.08047,16.90772c0.37827,1.19316 0.01047,2.84436 0.99144,3.6218c1.02951,0.8159 2.64446,0.01363 3.93093,0.27928c1.6942,0.34984 3.30096,1.03659 4.95145,1.55488c2.47017,0.78526 4.84286,1.96187 7.39891,2.39201c7.11463,1.19727 15.13444,-2.55766 19.73697,-7.84069c2.6242,-3.0122 7.28847,-8.00152 2.98225,-12.14123c-0.81113,-0.77977 -1.77797,-1.39799 -2.85239,-1.89491c1.37746,3.03267 1.50006,6.48576 -0.6622,9.70291c-2.16389,3.21959 -5.99457,5.32288 -9.59358,6.3954c-4.57619,1.36373 -9.32702,0.64734 -13.985,0.40699c-1.64111,-0.62413 -3.55909,-0.76713 -4.92334,-1.87238c-3.14223,-2.54569 -6.03126,-7.96116 -3.84645,-12.18908c1.05255,-2.03683 3.50898,-3.10751 5.65426,-3.91641c1.76214,-0.66443 3.75881,-0.24148 5.63938,-0.34192c0.0621,-0.00332 0.12467,-0.00649 0.18767,-0.00951c-0.72923,-0.42056 -1.52453,-0.89624 -2.47575,-1.43336c-1.42302,-0.80353 -3.01284,-1.37988 -4.31394,-2.35465c-0.63234,0.08795 -1.26572,0.15149 -1.90291,0.14018zM230.46614,245.51433c0.03047,-0.12787 0.07097,-0.26071 0.12264,-0.39862c0.87711,-2.34108 3.2182,-1.46397 3.2182,-1.46397l2.19164,0.91685c1.1806,-0.25917 4.67545,-0.95676 5.26627,-1.52848c2.10232,-2.03433 -1.29809,-4.00444 -2.63541,-4.44341c-4.44019,-1.45746 -10.19695,-2.63901 -14.89691,-1.58879c-4.37855,0.9784 -3.08209,5.2317 -0.32549,7.33946c0.80933,0.61883 1.93241,0.64627 2.89862,0.96941c1.38674,0.04587 2.77739,0.13896 4.16043,0.19754zM237.61142,201.97534c0.83569,0.27854 1.64385,0.62581 2.41305,1.04587c-0.79668,-0.61208 -1.62738,-1.15098 -2.49776,-1.60654c0.05338,0.19747 0.0799,0.38436 0.08471,0.56067zM232.79087,206.02567c-1.18057,0.82846 -2.84811,2.02626 -3.14673,3.35805c-1.63712,7.30123 8.23347,10.79454 12.03585,4.66073c1.09748,-1.77041 -2.02372,-5.601 -3.34747,-6.44504c-1.56401,-0.99724 -3.51869,-1.48562 -5.54165,-1.57374zM214.47198,147.62373c-0.02153,0.01412 -0.04307,0.02822 -0.06461,0.04232c0.00429,0.00693 0.00858,0.01385 0.01287,0.02078c0.01725,-0.02104 0.03449,-0.04208 0.05175,-0.06311z" fill="#001dff" stroke="none" stroke-width="0.5"/></g></g></svg>