<svg version="1.1" xmlns="http://www.w3.org/2000/svg" xmlns:xlink="http://www.w3.org/1999/xlink" width="290.23195" height="118.96132" viewBox="0,0,290.23195,118.96132"><g transform="translate(-130.85097,-102.09749)"><g data-paper-data="{&quot;isPaintingLayer&quot;:true}" fill-rule="nonzero" stroke-linejoin="miter" stroke-miterlimit="10" stroke-dasharray="" stroke-dashoffset="0" style="mix-blend-mode: normal"><path d="M357.56076,215.58652l0.86837,-48.62835h61.6538v46.02326" fill="none" stroke="#000000" stroke-width="2" stroke-linecap="round"/><path d="M341.87228,214.78283l0.3173,-24.1148h-28.2397l0.3173,-39.9798" fill="none" stroke="#000000" stroke-width="2" stroke-linecap="round"/><path d="M313.31528,190.66803l-0.9519,22.8456" fill="none" stroke="#000000" stroke-width="2" stroke-linecap="round"/><path d="M346.10319,152.79464c0,6.5715 -5.32725,11.89875 -11.89875,11.89875c-6.5715,0 -11.89875,-5.32725 -11.89875,-11.89875c0,-6.5715 5.32725,-11.89875 11.89875,-11.89875c6.5715,0 11.89875,5.32725 11.89875,11.89875z" fill="#ffffff" stroke="#000000" stroke-width="2" stroke-linecap="butt"/><path d="M349.91078,195.78879l-14.5958,-9.519l-0.6346,-21.2591" fill="none" stroke="#000000" stroke-width="2" stroke-linecap="round"/><path d="M335.63228,185.63519l13.6439,15.5477" fill="none" stroke="#000000" stroke-width="2" stroke-linecap="round"/><path d="M325.79598,190.62733l8.5671,-16.1823l9.519,12.0574" fill="none" stroke="#000000" stroke-width="2" stroke-linecap="round"/><path d="M332.041,160.34968c0,0 3.50813,-1.7262 5.04369,-1.69776c1.37207,0.02541 3.73452,1.86032 3.73452,1.86032" fill="none" stroke="#000000" stroke-width="2" stroke-linecap="round"/><path d="M333.34148,151.89658l-0.16256,3.57631" fill="none" stroke="#000000" stroke-width="2" stroke-linecap="round"/><path d="M340.00642,151.89658l-0.16256,3.57631" fill="none" stroke="#000000" stroke-width="2" stroke-linecap="round"/><path d="M331.87844,147.01979l3.73887,2.76351" fill="none" stroke="#000000" stroke-width="2" stroke-linecap="round"/><path d="M340.98178,147.83259l-2.76351,2.27583" fill="none" stroke="#000000" stroke-width="2" stroke-linecap="round"/><path d="M391.85531,135.26576l-0.78883,30.0215l-28.15334,-0.09112" fill="none" stroke="#000000" stroke-width="2" stroke-linecap="round"/><g fill="#ffffff" stroke="#000000" stroke-width="2" stroke-linecap="butt"><path d="M131.85098,220.05881v-116.19306h25.60101v116.19306z"/><path d="M156.19976,162.42705c0,4.62036 -1.09013,8.3659 -2.43488,8.3659c-1.34475,0 -2.43488,-3.74554 -2.43488,-8.3659c0,-4.62036 1.09013,-8.3659 2.43488,-8.3659c1.34475,0 2.43488,3.74554 2.43488,8.3659z"/></g><path d="M204.7957,148.20779c0,9.29585 -7.53577,16.83162 -16.83162,16.83162c-9.29585,0 -16.83162,-7.53577 -16.83162,-16.83162c0,-9.29585 7.53577,-16.83162 16.83162,-16.83162c9.29585,0 16.83162,7.53577 16.83162,16.83162z" fill="#ffffff" stroke="#000000" stroke-width="2.5" stroke-linecap="butt"/><path d="M189.37332,166.69046l1.31491,29.00781l-5.91708,16.43775" fill="none" stroke="#000000" stroke-width="2.5" stroke-linecap="round"/><path d="M190.29948,194.96557l5.91708,19.77625" fill="none" stroke="#000000" stroke-width="2.5" stroke-linecap="round"/><path d="M181.17177,155.60246c0,0 6.48278,4.08876 9.54043,4.08876c2.83083,0 8.17751,-4.08876 8.17751,-4.08876" fill="none" stroke="#000000" stroke-width="2.5" stroke-linecap="round"/><path d="M185.26052,144.35838l-0.34073,6.13313" fill="none" stroke="#000000" stroke-width="2.5" stroke-linecap="round"/><path d="M193.43803,142.99546v9.1997" fill="none" stroke="#000000" stroke-width="2.5" stroke-linecap="round"/><path d="M155.27631,152.87662l34.4137,25.21399l31.34713,-30.32494" fill="none" stroke="#000000" stroke-width="2.5" stroke-linecap="round"/><text transform="translate(197.53066,123.84749) scale(0.5,0.5)" font-size="40" xml:space="preserve" fill="#000000" fill-rule="nonzero" stroke="none" stroke-width="1" stroke-linecap="butt" stroke-linejoin="miter" stroke-miterlimit="10" stroke-dasharray="" stroke-dashoffset="0" font-family="Sans Serif" font-weight="normal" text-anchor="start" style="mix-blend-mode: normal"><tspan x="0" dy="0">Surprise!</tspan></text><path d="M168.96606,140.48925v-8.5671l5.7114,-6.9806l4.98496,6.15809l7.68944,-6.49l6.63487,5.85996l8.87378,-3.37048l3.92809,5.82293l1.83996,-0.99989v8.5671z" fill="#ffffff" stroke="#000000" stroke-width="2.5" stroke-linecap="butt"/></g></g></svg>