<svg version="1.1" xmlns="http://www.w3.org/2000/svg" xmlns:xlink="http://www.w3.org/1999/xlink" width="290.23195" height="118.19306" viewBox="0,0,290.23195,118.19306"><g transform="translate(-130.851,-102.86575)"><g data-paper-data="{&quot;isPaintingLayer&quot;:true}" fill-rule="nonzero" stroke-linejoin="miter" stroke-miterlimit="10" stroke-dasharray="" stroke-dashoffset="0" style="mix-blend-mode: normal"><path d="M357.56078,215.58652l0.86837,-48.62835h61.6538v46.02326" fill="none" stroke="#000000" stroke-width="2" stroke-linecap="round"/><path d="M341.8723,214.78283l0.3173,-24.1148h-28.2397l0.3173,-39.9798" fill="none" stroke="#000000" stroke-width="2" stroke-linecap="round"/><path d="M312.3634,213.51363l0.9519,-22.8456" fill="none" stroke="#000000" stroke-width="2" stroke-linecap="round"/><path d="M346.10321,152.79464c0,6.5715 -5.32725,11.89875 -11.89875,11.89875c-6.5715,0 -11.89875,-5.32725 -11.89875,-11.89875c0,-6.5715 5.32725,-11.89875 11.89875,-11.89875c6.5715,0 11.89875,5.32725 11.89875,11.89875z" fill="#ffffff" stroke="#000000" stroke-width="2" stroke-linecap="butt"/><path d="M349.9108,195.78879l-14.5958,-9.519l-0.6346,-21.2591" fill="none" stroke="#000000" stroke-width="2" stroke-linecap="round"/><path d="M349.27619,201.18289l-13.6439,-15.5477" fill="none" stroke="#000000" stroke-width="2" stroke-linecap="round"/><path d="M325.79598,190.62733l8.5671,-16.1823l9.519,12.0574" fill="none" stroke="#000000" stroke-width="2" stroke-linecap="round"/><path d="M332.04102,160.34968c0,0 3.50813,-1.7262 5.04369,-1.69776c1.37207,0.02541 3.73452,1.86032 3.73452,1.86032" fill="none" stroke="#000000" stroke-width="2" stroke-linecap="round"/><path d="M333.17894,155.47289l0.16256,-3.57631" fill="none" stroke="#000000" stroke-width="2" stroke-linecap="round"/><path d="M339.84388,155.47289l0.16256,-3.57631" fill="none" stroke="#000000" stroke-width="2" stroke-linecap="round"/><path d="M331.87845,147.01979l3.73887,2.76351" fill="none" stroke="#000000" stroke-width="2" stroke-linecap="round"/><path d="M338.21829,150.10842l2.76351,-2.27583" fill="none" stroke="#000000" stroke-width="2" stroke-linecap="round"/><path d="M391.85532,135.26576l-0.78883,30.0215l-28.15334,-0.09112" fill="none" stroke="#000000" stroke-width="2" stroke-linecap="round"/><g fill="#ffffff" stroke="#000000" stroke-width="2" stroke-linecap="butt"><path d="M131.851,220.05881v-116.19306h25.60101v116.19306z"/><path d="M156.19977,162.42705c0,4.62036 -1.09013,8.3659 -2.43488,8.3659c-1.34475,0 -2.43488,-3.74554 -2.43488,-8.3659c0,-4.62036 1.09013,-8.3659 2.43488,-8.3659c1.34475,0 2.43488,3.74554 2.43488,8.3659z"/></g><path d="M204.79572,148.20779c0,9.29585 -7.53577,16.83162 -16.83162,16.83162c-9.29585,0 -16.83162,-7.53577 -16.83162,-16.83162c0,-9.29585 7.53577,-16.83162 16.83162,-16.83162c9.29585,0 16.83162,7.53577 16.83162,16.83162z" fill="#ffffff" stroke="#000000" stroke-width="2.5" stroke-linecap="butt"/><path d="M189.37334,166.69046l1.31491,29.00781l-5.91708,16.43775" fill="none" stroke="#000000" stroke-width="2.5" stroke-linecap="round"/><path d="M190.2995,194.96557l5.91708,19.77625" fill="none" stroke="#000000" stroke-width="2.5" stroke-linecap="round"/><path d="M168.96608,140.48925v-8.5671l5.7114,-6.9806l4.98496,6.15809l7.68944,-6.49l6.63487,5.85996l8.87378,-3.37048l3.92809,5.82293l1.83996,-0.99989v8.5671z" fill="#ffffff" stroke="#000000" stroke-width="2.5" stroke-linecap="butt"/><path d="M182.81713,160.70626c0,0 6.14904,-1.78797 8.66472,-1.83134c2.04135,-0.03519 5.30583,1.59047 5.30583,1.59047" fill="none" stroke="#000000" stroke-width="2.5" stroke-linecap="round"/><path d="M189.75,178.25l-8.5,21" fill="none" stroke="#000000" stroke-width="2.5" stroke-linecap="round"/><path d="M189.25,181.25l10,19.5" fill="none" stroke="#000000" stroke-width="2.5" stroke-linecap="round"/><path d="M199.75267,151.48644c0.3191,-0.26215 0.6111,-0.55383 0.86181,-0.86255c-0.14493,0.146 -0.28708,0.28746 -0.42334,0.42408zM202.69126,147.95868c0.23619,1.84864 -0.95862,4.1323 -2.57521,5.40499c-0.90156,0.70977 -2.17855,0.79354 -3.34527,0.58844c0.08751,0.13363 0.17552,0.26682 0.26406,0.39951c0,0 0.41603,0.62404 -0.20801,1.04006c-0.62404,0.41602 -1.04006,-0.20801 -1.04006,-0.20801c-0.24892,-0.3737 -0.59763,-0.84608 -0.98666,-1.38127c-1.14703,0.12082 -2.21088,-0.24672 -2.99773,-1.34622c-1.46352,-2.04503 -1.01606,-4.5967 0.4243,-6.21805c1.45047,-2.46701 4.57955,-3.65438 7.00782,-2.86551c2.41612,0.02931 4.59677,1.09554 3.64909,4.09522c-0.05236,0.16571 -0.11714,0.32939 -0.19233,0.49084zM195.48151,146.11481c-1.09121,1.68528 -1.94291,5.37027 1.03747,4.66636c1.46936,-0.34704 3.17484,-2.42884 2.81602,-4.13028c-0.25716,-0.04507 -0.47852,-0.07884 -0.61029,-0.10512c-0.95122,-0.18968 -1.91469,-0.32641 -2.88136,-0.40616c-0.12501,-0.01313 -0.24559,-0.02134 -0.36184,-0.0248zM192.69959,150.59546c0.05562,0.46517 0.18542,0.92094 0.4764,1.24402c-0.046,-0.18022 -0.09778,-0.41311 -0.15029,-0.66769c-0.11336,-0.19149 -0.22258,-0.38392 -0.3261,-0.57634zM198.9858,152.02665c-0.11329,0.01668 -0.24043,0.00603 -0.37264,-0.05827c-0.24832,0.20338 -0.50326,0.39541 -0.76257,0.57325c0.3854,-0.1201 0.76913,-0.29645 1.13521,-0.51498z" fill="#000000" stroke="none" stroke-width="0.5" stroke-linecap="butt"/><path d="M184.07502,154.19335c-0.88864,0.19912 -1.84476,0.23434 -2.70951,0.03587c0.12214,0.54627 0.17748,1.08272 0.01312,1.50576c-0.61168,1.57431 -0.88799,1.19416 -2.29271,1.20864c-0.81687,-0.96451 -1.35453,-2.05769 -1.66596,-3.21793c-0.02228,0.00564 -0.0445,0.01126 -0.06665,0.01682c-2.11085,0.53054 -4.25933,0.59106 -4.43282,-2.09501c0.64248,-1.99048 0.63306,-3.86008 2.64223,-5.0442c0.70718,-0.41678 1.55822,-0.63055 2.47399,-0.72086c0.06157,-0.17074 0.12554,-0.34004 0.19175,-0.50772c0.28402,-0.71927 0.33638,-1.61007 0.90201,-2.13741c0.8046,-0.75014 2.18018,-0.54398 3.06734,-0.16258c0.60303,0.25925 1.28144,0.56464 1.98092,0.91569c0.52921,-0.00078 1.05717,0.10542 1.55903,0.33047c1.46584,0.25521 2.94752,1.39591 2.88972,2.75566c0.55648,0.59956 0.99415,1.25106 1.24482,1.95392c1.28262,3.98877 -2.43472,5.59941 -5.7973,5.16289zM185.70458,148.38698c-0.05678,-0.21882 -0.14383,-0.43283 -0.26,-0.63565c-0.34693,0.00492 -0.65796,0.02422 -0.81776,0.01553c-0.76123,-0.04138 -1.66844,-0.16381 -2.62274,-0.27086c-0.21339,0.04665 -0.42712,0.10043 -0.63486,0.16139c-0.18188,0.32083 -0.34545,0.65999 -0.47338,0.99881c-0.10913,0.60914 -0.14688,1.26532 -0.13948,1.89713c0.09521,0.11911 0.21098,0.22866 0.34925,0.3263c1.40115,-0.64923 2.77392,-1.40111 4.02605,-2.17072c0.12655,-0.07779 0.33561,-0.18902 0.57291,-0.32193zM177.15585,152.34293c-0.18974,-1.59376 -0.01875,-3.26307 0.38977,-4.86465c-0.46602,0.09698 -0.90019,0.24308 -1.28673,0.4537c-1.46482,0.79818 -1.37334,2.5563 -1.85777,3.9558c-0.29647,1.03487 1.52186,0.75623 2.75473,0.45516zM179.54477,153.21022c-0.01912,-0.02365 -0.03814,-0.04788 -0.05705,-0.07265c-0.23437,0.07397 -0.46601,0.14453 -0.69397,0.21167c0.20474,0.87116 0.51645,1.64603 0.94195,2.24242c0.33335,0.06891 0.00628,-1.49487 -0.19093,-2.38144zM179.33105,145.82844c0.39547,0.00259 0.79576,0.01998 1.19534,0.04659c0.42014,-0.52408 0.91796,-0.95184 1.45853,-1.26658c-0.67897,-0.32825 -1.52898,-0.64291 -1.79378,-0.31048c-0.33373,0.41896 -0.62135,0.94033 -0.86008,1.53047zM178.50147,151.03778c0.00997,0.2987 0.02947,0.59473 0.0587,0.88573c0.07342,-0.0259 0.14693,-0.05223 0.22049,-0.07897c-0.10469,-0.25839 -0.19866,-0.52993 -0.27919,-0.80676zM182.82463,152.76217c0.0563,0.03432 0.11358,0.0662 0.17194,0.09521c0.49406,0.00311 1.00283,-0.09547 1.48397,-0.29315c-0.52954,0.1426 -1.09534,0.21096 -1.6559,0.19794zM188.49567,149.6489c-0.30078,1.03422 -0.98375,2.0813 -1.62399,2.87319c1.18989,-0.5442 2.02886,-1.49546 1.62399,-2.87319z" fill="#000000" stroke="none" stroke-width="0.5" stroke-linecap="butt"/><path d="M178.90843,159.49946c-0.33541,-0.67082 0.33541,-1.00623 0.33541,-1.00623l0.55208,-0.26252c0.78528,-0.58883 1.41803,-1.09492 2.03101,-1.86852c0,0 0.46853,-0.58565 1.05418,-0.11713c0.58565,0.46852 0.11713,1.05418 0.11713,1.05418c-0.69872,0.8663 -1.41668,1.4671 -2.30232,2.13147l-0.78125,0.40416c0,0 -0.67082,0.33541 -1.00623,-0.33541z" fill="#000000" stroke="none" stroke-width="0.5" stroke-linecap="butt"/><path d="M199.76622,157.70117c0,0.75 -0.75,0.75 -0.75,0.75l-0.48042,-0.01456c-1.22093,-0.24853 -1.8354,-0.46308 -2.61958,-1.4521c0,0 -0.45,-0.6 0.15,-1.05c0.6,-0.45 1.05,0.15 1.05,0.15c0.49191,0.71999 0.86619,0.71526 1.71375,0.88123l0.18625,-0.01456c0,0 0.75,0 0.75,0.75z" fill="#000000" stroke="none" stroke-width="0.5" stroke-linecap="butt"/></g></g></svg>