<svg version="1.1" xmlns="http://www.w3.org/2000/svg" xmlns:xlink="http://www.w3.org/1999/xlink" width="578.07808" height="650.64837" viewBox="0,0,578.07808,650.64837"><g transform="translate(89.57958,5.23648)"><g data-paper-data="{&quot;isPaintingLayer&quot;:true}" fill-rule="nonzero" stroke-linejoin="miter" stroke-miterlimit="10" stroke-dasharray="" stroke-dashoffset="0" style="mix-blend-mode: normal"><path d="M-89.57958,598.36713v-603.6036h578.07808v603.6036z" fill="#000000" stroke="none" stroke-width="0" stroke-linecap="butt"/><path d="M347.56924,183.05179c0,63.20182 -51.23516,114.43698 -114.43698,114.43698c-63.20182,0 -114.43698,-51.23516 -114.43698,-114.43698c0,-63.20182 51.23516,-114.43698 114.43698,-114.43698c63.20182,0 114.43698,51.23516 114.43698,114.43698z" fill="#ffffff" stroke="#252525" stroke-width="20" stroke-linecap="butt"/><path d="M242.71358,308.71414l8.93998,197.22202l-40.2298,111.75909" fill="#ffffff" stroke="#252525" stroke-width="20" stroke-linecap="round"/><path d="M249.01047,500.95459l40.22981,134.45731" fill="none" stroke="#000000" stroke-width="20" stroke-linecap="round"/><path d="M103.96608,130.57398v-58.2471l38.8314,-47.4606l33.89239,41.86842l52.27996,-44.12504l45.11,39.84145l60.3322,-22.91565l26.70681,39.58968l12.50975,-6.79818v58.2471z" fill="#ffffff" stroke="#252525" stroke-width="20" stroke-linecap="butt"/><path d="M196.63688,269.52949c0,0 41.80688,-12.15628 58.91081,-12.45115c13.87899,-0.23925 36.07396,10.81349 36.07396,10.81349" fill="#262626" stroke="#252525" stroke-width="20" stroke-linecap="round"/><path d="M187.48357,530.08412l57.79089,-142.7775" fill="#ffffff" stroke="#252525" stroke-width="20" stroke-linecap="round"/><path d="M241.875,407.70341l67.98928,132.57911" fill="#ffffff" stroke="#252525" stroke-width="20" stroke-linecap="round"/><path d="M313.2819,205.34309c2.16954,-1.78234 4.15482,-3.76545 5.85938,-5.86441c-0.98537,0.99265 -1.95183,1.95442 -2.87825,2.88329zM333.26116,181.35811c1.60584,12.56877 -6.51758,28.09521 -17.50867,36.74814c-6.12964,4.82567 -14.81181,5.39522 -22.74426,4.00076c0.59497,0.90854 1.19335,1.81409 1.79532,2.71624c0,0 2.82856,4.24281 -1.41424,7.07129c-4.2428,2.82849 -7.07129,-1.41424 -7.07129,-1.41424c-1.69239,-2.54076 -4.06325,-5.75244 -6.70824,-9.39116c-7.79857,0.82145 -15.03161,-1.67743 -20.38135,-9.15285c-9.95037,-13.90401 -6.90812,-31.25263 2.88478,-42.27608c9.86164,-16.77302 31.13603,-24.84587 47.64567,-19.48239c16.42703,0.19928 31.25312,7.4485 24.80991,27.84311c-0.35599,1.12665 -0.79643,2.2395 -1.30764,3.33719zM284.24259,168.82176c-7.41906,11.4581 -13.20971,36.51208 7.05368,31.72625c9.99007,-2.3595 21.58551,-16.51351 19.14592,-28.08148c-1.74841,-0.30643 -3.25342,-0.53602 -4.14932,-0.7147c-6.46727,-1.28962 -13.01784,-2.21924 -19.59016,-2.76146c-0.84994,-0.08927 -1.66975,-0.14509 -2.46013,-0.16861zM265.32851,199.28538c0.37815,3.16266 1.26066,6.2614 3.23901,8.458c-0.31275,-1.2253 -0.6648,-2.8087 -1.02181,-4.53957c-0.77073,-1.30193 -1.51331,-2.61025 -2.21713,-3.9185zM308.06801,209.01594c-0.77025,0.11341 -1.63467,0.041 -2.53356,-0.39617c-1.68831,1.38277 -3.42163,2.68836 -5.18466,3.89748c2.6203,-0.81655 5.22927,-2.01554 7.71822,-3.50131z" fill="#252525" stroke="none" stroke-width="20" stroke-linecap="butt"/><path d="M206.69068,223.74718c-6.0418,1.3538 -12.54238,1.59326 -18.42176,0.24388c0.83042,3.71405 1.20667,7.36133 0.0892,10.23755c-4.15877,10.70362 -6.03738,8.119 -15.58797,8.21746c-5.55384,-6.55764 -9.20936,-13.99009 -11.32675,-21.87848c-0.15148,0.03834 -0.30255,0.07656 -0.45315,0.11436c-14.35152,3.6071 -28.95888,4.01857 -30.13843,-14.24382c4.36818,-13.53313 4.30413,-26.24441 17.96434,-34.29516c4.80806,-2.83365 10.59422,-4.28706 16.82048,-4.90107c0.41861,-1.16085 0.85354,-2.3119 1.3037,-3.45195c1.93103,-4.89026 2.28702,-10.94676 6.1327,-14.5321c5.47042,-5.10015 14.82289,-3.69848 20.85462,-1.10537c4.09996,1.76262 8.71242,3.83894 13.46813,6.22571c3.59806,-0.0053 7.18762,0.71675 10.59973,2.24685c9.96614,1.73515 20.03998,9.49069 19.647,18.73553c3.78347,4.07637 6.75916,8.50587 8.46345,13.28456c8.72044,27.11936 -16.55349,38.06999 -39.41543,35.10212zM217.76994,184.27009c-0.38604,-1.48774 -0.97789,-2.94278 -1.76772,-4.32174c-2.35875,0.03345 -4.47342,0.16467 -5.55989,0.10559c-5.17555,-0.28134 -11.34361,-1.11373 -17.83182,-1.84155c-1.45083,0.31717 -2.90396,0.68281 -4.31637,1.09728c-1.23659,2.1813 -2.34869,4.48722 -3.21848,6.79084c-0.74196,4.1415 -0.99863,8.60282 -0.94832,12.89845c0.64732,0.80982 1.43444,1.55465 2.37453,2.21849c9.52632,-4.41407 18.85969,-9.52604 27.37283,-14.75857c0.8604,-0.52889 2.28179,-1.28513 3.89517,-2.18878zM159.64774,211.16631c-1.29003,-10.83586 -0.12748,-22.18538 2.65002,-33.07441c-3.16843,0.65936 -6.12032,1.65268 -8.74838,3.08468c-9.9592,5.42677 -9.33724,17.3801 -12.63085,26.8952c-2.01568,7.036 10.34702,5.14156 18.72921,3.09461zM175.88983,217.06295c-0.13,-0.1608 -0.2593,-0.32553 -0.38787,-0.49394c-1.59347,0.50292 -3.16837,0.98265 -4.71825,1.43913c1.39201,5.92296 3.5113,11.19124 6.40425,15.24605c2.26642,0.46851 0.04269,-10.16351 -1.29812,-16.19124zM174.43677,166.87475c2.68877,0.01761 5.41031,0.13584 8.12703,0.31676c2.8565,-3.56318 6.24114,-6.47149 9.91644,-8.61139c-4.61627,-2.23175 -10.39542,-4.3711 -12.19578,-2.11093c-2.269,2.84848 -4.22452,6.39324 -5.84763,10.40556zM168.79651,202.29269c0.06778,2.03084 0.20036,4.04353 0.39909,6.02202c0.49918,-0.17609 0.99896,-0.35511 1.4991,-0.53692c-0.71178,-1.75678 -1.35067,-3.60295 -1.89819,-5.4851zM198.18937,214.01669c0.38278,0.23334 0.77222,0.4501 1.16901,0.64733c3.35908,0.02114 6.81817,-0.6491 10.0894,-1.99311c-3.6003,0.96953 -7.44714,1.43429 -11.25834,1.34578zM236.74636,192.84979c-2.04498,7.03159 -6.68845,14.15061 -11.04139,19.53462c8.08998,-3.69997 13.79407,-10.16753 11.04139,-19.53462z" fill="#252525" stroke="none" stroke-width="20" stroke-linecap="butt"/><path d="M171.5634,259.82304c-2.28043,-4.56086 2.28043,-6.84129 2.28043,-6.84129l3.75355,-1.78485c5.33907,-4.00341 9.64109,-7.44429 13.8087,-12.70394c0,0 3.18551,-3.9818 7.1673,-0.79636c3.98179,3.18544 0.79635,7.16729 0.79635,7.16729c-4.75054,5.88991 -9.6319,9.97471 -15.6533,14.49172l-5.31167,2.74785c0,0 -4.56086,2.28043 -6.84128,-2.28043z" fill="#252525" stroke="none" stroke-width="20" stroke-linecap="butt"/><path d="M313.37403,247.5966c0,5.0992 -5.0992,5.0992 -5.0992,5.0992l-3.26634,-0.09899c-8.30102,-1.68974 -12.47875,-3.14845 -17.81034,-9.87273c0,0 -3.05952,-4.07935 1.01984,-7.13887c4.07936,-3.05952 7.13888,1.01984 7.13888,1.01984c3.34446,4.89516 5.88916,4.863 11.65166,5.99142l1.2663,-0.099c0,0 5.0992,0 5.0992,5.0992z" fill="#252525" stroke="none" stroke-width="20" stroke-linecap="butt"/><text transform="translate(125.51201,350.2943) scale(0.5,0.5)" font-size="40" xml:space="preserve" fill="#cccccc" fill-rule="nonzero" stroke="none" stroke-width="1" stroke-linecap="butt" stroke-linejoin="miter" stroke-miterlimit="10" stroke-dasharray="" stroke-dashoffset="0" font-family="Sans Serif" font-weight="normal" text-anchor="start" style="mix-blend-mode: normal"><tspan x="0" dy="0">i have seen things horrible</tspan></text></g></g></svg>